<?xml version="1.0" encoding="utf-8"?>
<!-- Generator: Adobe Illustrator 18.0.0, SVG Export Plug-In . SVG Version: 6.00 Build 0)  -->
<!DOCTYPE svg PUBLIC "-//W3C//DTD SVG 1.0//EN" "http://www.w3.org/TR/2001/REC-SVG-20010904/DTD/svg10.dtd">
<svg version="1.0" id="Layer_1" xmlns="http://www.w3.org/2000/svg" xmlns:xlink="http://www.w3.org/1999/xlink" x="0px" y="0px"
	 viewBox="0 0 200 200" enable-background="new 0 0 200 200" xml:space="preserve">
<g>
	<path d="M150.9,148.9c-0.1-0.1-14.6-10.9-19.7-19.6c-6.1-10.3-9-24.6-8.2-40.3c0-0.3,0-0.6-0.1-0.9l5.3-16.2c0-0.1,0-0.1,0-0.2
		c0-0.1,0.1-0.2,0.1-0.4c0-0.1,0-0.2,0-0.3c0-0.1,0-0.2,0-0.3c0-0.1,0-0.2,0-0.3c0-0.1,0-0.2-0.1-0.3c0-0.1-0.1-0.2-0.1-0.3
		c0-0.1-0.1-0.2-0.1-0.3c0-0.1-0.1-0.2-0.1-0.3c-0.1-0.1-0.1-0.2-0.2-0.3c-0.1-0.1-0.1-0.2-0.2-0.3c0,0-0.1-0.1-0.1-0.2
		c0,0,0,0-0.1-0.1c-0.1-0.1-0.2-0.1-0.3-0.2c-0.1-0.1-0.2-0.1-0.3-0.2c-0.1-0.1-0.2-0.1-0.3-0.1c-0.1-0.1-0.2-0.1-0.3-0.1
		c0,0-0.1,0-0.1,0c-0.1,0-0.1,0-0.2,0c-0.1,0-0.2-0.1-0.3-0.1c-0.1,0-0.2,0-0.3,0c-0.1,0-0.2,0-0.3,0c-0.1,0-0.2,0-0.3,0
		c-0.1,0-0.2,0-0.3,0.1c-0.1,0-0.2,0.1-0.3,0.1c-0.1,0-0.2,0.1-0.3,0.1c-0.1,0-0.2,0.1-0.3,0.2c-0.1,0-0.2,0.1-0.2,0.2
		c-0.1,0.1-0.2,0.2-0.3,0.2c0,0-0.1,0.1-0.1,0.1c-19.7,20-48.1,0.5-49.3-0.4v0c-0.1,0-0.1-0.1-0.2-0.1C73.2,68.1,73.1,68,73,68
		c-0.1,0-0.2-0.1-0.3-0.1c-0.1,0-0.2-0.1-0.3-0.1c-0.1,0-0.2,0-0.3-0.1c-0.1,0-0.2,0-0.3,0c-0.1,0-0.2,0-0.3,0c-0.1,0-0.2,0-0.3,0
		c-0.1,0-0.2,0-0.4,0.1c-0.1,0-0.1,0-0.2,0c0,0,0,0-0.1,0c-0.1,0-0.2,0.1-0.3,0.2c-0.1,0-0.2,0.1-0.2,0.1c-0.1,0.1-0.2,0.1-0.3,0.2
		c-0.1,0.1-0.2,0.1-0.2,0.2c-0.1,0.1-0.1,0.1-0.2,0.2C69.1,68.8,69,68.9,69,69c0,0,0,0,0,0.1c0,0.1-0.1,0.1-0.1,0.2
		c-0.1,0.1-0.1,0.2-0.2,0.3c0,0.1-0.1,0.2-0.1,0.3c0,0.1-0.1,0.2-0.1,0.3c0,0.1,0,0.2-0.1,0.3c0,0.1,0,0.2,0,0.3c0,0.1,0,0.2,0,0.3
		c0,0.1,0,0.2,0,0.3c0,0.1,0,0.2,0.1,0.3c0,0.1,0,0.1,0,0.2l5.3,16.2c-0.1,0.3-0.1,0.6-0.1,0.9c0.8,16.6-1.8,30.5-7.5,40.3
		c-5.1,8.7-19.5,19.4-19.7,19.6c-1.4,1.1-1.7,3.1-0.7,4.6c0.6,0.9,1.6,1.3,2.6,1.3c0.7,0,1.4-0.2,1.9-0.6
		c0.6-0.5,15.6-11.7,21.4-21.5c4.2-7.1,6.8-16,8-26.3l7,21.4l2.2,24c0.2,1.7,1.6,3,3.2,3c0.1,0,0.2,0,0.3,0c1.8-0.2,3.1-1.8,3-3.5
		l-2.2-24.4c0-0.2-0.1-0.5-0.1-0.7L77.3,77.9c6,2.9,14.8,6.1,24.3,6.1c5.6,0,11.5-1.2,17.1-4.2l-15.3,46.7c-0.1,0.2-0.1,0.5-0.2,0.8
		l-2,24.6c-0.1,1.8,1.2,3.4,3,3.5c0.1,0,0.2,0,0.3,0c1.7,0,3.1-1.3,3.3-3l1.9-24.2l7.3-22.3c1.3,10.1,4.1,19.3,8.5,26.7
		c5.8,9.8,20.8,21,21.4,21.5c0.6,0.4,1.3,0.6,1.9,0.6c1,0,2-0.5,2.6-1.3C152.6,152,152.3,149.9,150.9,148.9z"/>
	<path d="M85.2,69.6l8.1-5.3l18.7,7.5c0.4,0.2,0.8,0.2,1.2,0.2c1.3,0,2.5-0.8,3-2c0.7-1.7-0.1-3.6-1.8-4.3l-20.3-8.2
		c-1-0.4-2.1-0.3-3,0.3l-9.5,6.2c-1.5,1-1.9,3-0.9,4.5C81.7,70.2,83.7,70.6,85.2,69.6z"/>
	<path d="M129.9,64.3c7.1,0,12.9-5.8,12.9-12.9s-5.8-12.9-12.9-12.9c-7.1,0-12.9,5.8-12.9,12.9S122.7,64.3,129.9,64.3z M129.9,45.1
		c3.5,0,6.4,2.9,6.4,6.4s-2.9,6.4-6.4,6.4c-3.5,0-6.4-2.9-6.4-6.4S126.4,45.1,129.9,45.1z"/>
	<path d="M64.6,64.3c7.1,0,12.9-5.8,12.9-12.9s-5.8-12.9-12.9-12.9c-7.1,0-12.9,5.8-12.9,12.9S57.4,64.3,64.6,64.3z M64.6,45.1
		c3.5,0,6.4,2.9,6.4,6.4s-2.9,6.4-6.4,6.4c-3.5,0-6.4-2.9-6.4-6.4S61,45.1,64.6,45.1z"/>
</g>
</svg>
