<?xml version="1.0" encoding="utf-8"?>
<!-- Generator: Adobe Illustrator 18.0.0, SVG Export Plug-In . SVG Version: 6.00 Build 0)  -->
<!DOCTYPE svg PUBLIC "-//W3C//DTD SVG 1.0//EN" "http://www.w3.org/TR/2001/REC-SVG-20010904/DTD/svg10.dtd">
<svg version="1.0" id="Layer_1" xmlns="http://www.w3.org/2000/svg" xmlns:xlink="http://www.w3.org/1999/xlink" x="0px" y="0px"
	 viewBox="0 0 200 200" enable-background="new 0 0 200 200" xml:space="preserve">
<g>
	<path d="M98.5,131.9c0,7.2,5.8,13,13,13c7.2,0,13-5.8,13-13c0-7.2-5.8-13-13-13C104.3,118.9,98.5,124.8,98.5,131.9z M117.9,131.9
		c0,3.5-2.9,6.4-6.4,6.4s-6.4-2.9-6.4-6.4c0-3.5,2.9-6.4,6.4-6.4S117.9,128.4,117.9,131.9z"/>
	<path d="M128.1,157H86.6c0.8,0,1.5-1.3,1.6-2.4c0.9-10.1,5.4-37.4,15-43.3c2.8-1.4,16.5-6.3,37,23.6c1,1.5,3.1,1.9,4.6,0.9
		c1.5-1,1.9-3.1,0.9-4.6c-18-26.2-32.5-28.7-40.4-27.4c-1.2-4.3-4.7-16.5-9.5-23.8c-0.2-0.3-0.4-0.5-0.6-0.7
		c6.2-5.1,11-13.7,7.9-45.4c-0.2-1.8-1.8-3.1-3.6-3c-1.8,0.2-3.1,1.8-3,3.6c3.3,33.3-2.7,37.7-6.7,40.6c-0.2,0.1-0.3,0.2-0.5,0.4
		C76.5,79,52.7,65.4,44.4,59.8c-1.5-1-3.5-0.6-4.6,0.9c-1,1.5-0.6,3.5,0.9,4.6c1.2,0.8,25.8,17.4,44,17.4c1.7,0,3.3-0.2,4.9-0.5
		c0.1,0.5,0.2,1,0.5,1.5c4.5,6.8,8,19.4,8.8,22.6c-13.4,9.5-17,43.8-17.3,47.8c-0.1,1.3,0.5,3,1.6,3H44.5c-1.8,0-3.3,1.7-3.3,3.5
		c0,1.8,1.5,3.5,3.3,3.5h83.6c1.8,0,3.3-1.7,3.3-3.5C131.4,158.7,130,157,128.1,157z"/>
	<path d="M160.1,157h-18.8c-1.8,0-3.3,1.7-3.3,3.5c0,1.8,1.5,3.5,3.3,3.5h18.8c1.8,0,3.3-1.7,3.3-3.5
		C163.4,158.7,161.9,157,160.1,157z"/>
</g>
</svg>
