<?xml version="1.0" encoding="utf-8"?>
<!-- Generator: Adobe Illustrator 18.0.0, SVG Export Plug-In . SVG Version: 6.00 Build 0)  -->
<!DOCTYPE svg PUBLIC "-//W3C//DTD SVG 1.0//EN" "http://www.w3.org/TR/2001/REC-SVG-20010904/DTD/svg10.dtd">
<svg version="1.0" id="Layer_1" xmlns="http://www.w3.org/2000/svg" xmlns:xlink="http://www.w3.org/1999/xlink" x="0px" y="0px"
	 viewBox="0 0 200 200" enable-background="new 0 0 200 200" xml:space="preserve">
<g transform="translate(0 -540.36)">
	<g>
		<g>
			<path d="M92.3,603.3L92.3,603.3c-1.5,0-2.8,1.2-2.8,2.8v14.2h-2.9c0-0.1,0-0.1,0-0.2c0,0,0-0.1,0-0.1c-1-9.7-10.2-17.4-19.9-16.7
				c-1.5,0.1-2.7,1.5-2.5,3c0.1,1.5,1.5,2.7,3,2.5c6.5-0.5,13.1,4.9,13.9,11.4H52.8c-0.8,0-1.5,0.3-2,0.9c-0.5,0.6-0.8,1.4-0.7,2.1
				c0.5,4.7,3,9.2,6.8,12.3c3.3,2.7,7.4,4.2,11.4,4.2c0.6,0,1.1,0,1.7-0.1c7.7-0.8,14.2-6.7,16.1-14h3.5v11.2c0,1.5,1.2,2.8,2.8,2.8
				c1.5,0,2.8-1.2,2.8-2.8v-30.9C95.1,604.6,93.8,603.3,92.3,603.3z M69.4,634.3c-3,0.3-6.3-0.7-9-2.9c-1.9-1.5-3.3-3.4-4.1-5.5h24
				C78.6,630.2,74.4,633.7,69.4,634.3z"/>
			<path d="M146.4,664.5L132.5,637c-0.5-0.9-1.4-1.5-2.5-1.5c-1.1,0-2,0.6-2.5,1.5l-14.1,28.2c-0.7,1.4-0.1,3,1.2,3.7
				c0.4,0.2,0.8,0.3,1.2,0.3c1,0,2-0.6,2.5-1.5l4.9-9.7h13.7l4.6,9.1c0.7,1.4,2.4,1.9,3.7,1.2C146.5,667.5,147.1,665.8,146.4,664.5
				L146.4,664.5z M126,652.4l4-8l4.1,8H126z"/>
			<path d="M168,647.8c-1.3-8.7-5.6-16.8-12-22.8c-7.4-6.9-17-10.7-27-10.7c-5.9,0-11.8,1.3-17.1,3.9c-2.4-19.9-19.2-34.9-39.2-34.9
				c-10.6,0-20.6,4.1-28.1,11.6c-7.5,7.5-11.7,17.4-11.7,28.1c0,10.6,4.1,20.6,11.7,28.1c7.5,7.5,17.5,11.6,28.1,11.6
				c5.9,0,11.6-1.3,16.9-3.8c1.9,16.1,13.7,29.6,29.4,33.8c3.2,0.8,6.4,1.2,9.6,1.2c14.6,0,27.9-7.9,34.9-20.6
				C167.7,665.5,169.3,656.5,168,647.8z M158.2,670.3c-5.9,10.8-17.3,17.5-29.6,17.5c-2.7,0-5.5-0.3-8.1-1
				c-14.2-3.8-24.5-16.6-25.1-31.3c10.1-7.1,16.2-18.2,16.8-30.5c5.1-3,10.9-4.5,16.8-4.5c8.5,0,16.6,3.2,22.9,9.1
				C163,639.9,165.7,656.7,158.2,670.3z M106.1,623c0,18.5-15,33.6-33.5,33.6c-18.6,0-33.7-15.1-33.7-33.6s15.1-33.6,33.7-33.6
				C91.1,589.4,106.1,604.5,106.1,623z"/>
			<path d="M86.6,690.3L86.6,690.3c0-0.1-0.1-0.2-0.1-0.3c0,0,0,0,0,0c0-0.1-0.1-0.2-0.1-0.3c0,0,0-0.1-0.1-0.1
				c0-0.1-0.1-0.1-0.1-0.2c0,0,0-0.1-0.1-0.1c-0.1-0.1-0.1-0.2-0.2-0.2s-0.1-0.2-0.2-0.2c0,0,0,0-0.1-0.1c-0.1-0.1-0.1-0.1-0.2-0.2
				c0,0-0.1,0-0.1-0.1c-0.1-0.1-0.1-0.1-0.2-0.1c0,0-0.1,0-0.1-0.1c-0.1-0.1-0.2-0.1-0.3-0.1l-14.1-5.7c-1.4-0.6-3,0.1-3.6,1.5
				c-0.6,1.4,0.1,3,1.5,3.6l9.5,3.8c-5.2,2.8-11.5,3-16.9,0.4h0c-6.9-3.2-11.2-10.2-11.1-18c0-1.5-1.2-2.8-2.7-2.8
				c-1.5,0-2.8,1.2-2.8,2.7c-0.2,9.9,5.4,19,14.2,23.1c3.3,1.6,6.9,2.4,10.4,2.4c3,0,6-0.6,8.9-1.7l-2.5,6.1c-0.6,1.4,0.1,3,1.5,3.6
				c0.3,0.1,0.7,0.2,1.1,0.2c1.1,0,2.1-0.6,2.6-1.7l5.7-14c0,0,0-0.1,0-0.1c0,0,0-0.1,0-0.1c0-0.1,0.1-0.2,0.1-0.2c0,0,0-0.1,0-0.1
				c0-0.1,0-0.2,0.1-0.3c0-0.1,0-0.2,0-0.3c0,0,0-0.1,0-0.1C86.6,690.5,86.6,690.4,86.6,690.3C86.6,690.3,86.6,690.3,86.6,690.3z"/>
			<path d="M114.9,589.7L114.9,589.7c0,0.1,0.1,0.2,0.1,0.3c0,0,0,0,0,0c0,0.1,0.1,0.2,0.1,0.3c0,0,0,0.1,0.1,0.1
				c0,0.1,0.1,0.1,0.1,0.2c0,0,0,0.1,0.1,0.1c0.1,0.1,0.1,0.2,0.2,0.2c0.1,0.1,0.1,0.2,0.2,0.2c0,0,0,0,0.1,0.1
				c0.1,0.1,0.1,0.1,0.2,0.2c0,0,0.1,0,0.1,0.1c0.1,0.1,0.1,0.1,0.2,0.1c0,0,0.1,0,0.1,0.1c0.1,0.1,0.2,0.1,0.3,0.1l14.1,5.7
				c1.4,0.6,3-0.1,3.6-1.5c0.6-1.4-0.1-3-1.5-3.6l-9.5-3.8c5.2-2.8,11.5-3,16.9-0.4h0c6.9,3.2,11.2,10.2,11.1,18
				c0,1.5,1.2,2.8,2.7,2.8c0,0,0.1,0,0.1,0c1.5,0,2.7-1.2,2.8-2.7c0.2-10-5.4-19-14.3-23.1l0,0c-6.2-2.9-13.1-3.1-19.3-0.7l2.5-6.1
				c0.6-1.4-0.1-3-1.5-3.6c-1.4-0.6-3,0.1-3.6,1.5l-5.7,14c0,0,0,0.1,0,0.1s0,0.1,0,0.1c0,0.1-0.1,0.2-0.1,0.2c0,0,0,0.1,0,0.1
				c0,0.1,0,0.2-0.1,0.3c0,0.1,0,0.2,0,0.3c0,0,0,0.1,0,0.1C114.9,589.4,114.9,589.5,114.9,589.7
				C114.9,589.6,114.9,589.6,114.9,589.7z"/>
		</g>
	</g>
</g>
</svg>
