<?xml version="1.0" encoding="utf-8"?>
<!-- Generator: Adobe Illustrator 18.0.0, SVG Export Plug-In . SVG Version: 6.00 Build 0)  -->
<!DOCTYPE svg PUBLIC "-//W3C//DTD SVG 1.0//EN" "http://www.w3.org/TR/2001/REC-SVG-20010904/DTD/svg10.dtd">
<svg version="1.0" id="Layer_1" xmlns="http://www.w3.org/2000/svg" xmlns:xlink="http://www.w3.org/1999/xlink" x="0px" y="0px"
	 viewBox="0 0 200 200" enable-background="new 0 0 200 200" xml:space="preserve">
<g>
	<path d="M106.3,81.6c1.7,0,3.1-1.4,3.1-3.1c0-1.7-1.4-3.1-3.1-3.1c-5.7,0-10.4-4.6-10.4-10.4c0-5.7,4.7-10.4,10.4-10.4
		c1.7,0,3.1-1.4,3.1-3.1s-1.4-3.1-3.1-3.1c-9.1,0-16.5,7.4-16.5,16.6C89.7,74.2,97.2,81.6,106.3,81.6z"/>
	<path d="M66.1,111c-9.6,0-17.4,7.8-17.4,17.4c0,9.6,7.5,17.4,17.1,17.4c4.3,0,8.2-1.6,11.2-4.4v6.5c0,1.7,1.3,3.1,3,3.1
		c1.7,0,3-1.4,3-3.1v-20.5c0-0.6-0.1-0.6-0.1-1.7C81.7,117.4,74.7,111,66.1,111z M77.3,128.4c0,6.2-5,11.2-11.2,11.2
		s-11.2-5-11.2-11.2c0-6.2,5-11.2,11.2-11.2S77.3,122.2,77.3,128.4z"/>
	<path d="M134.6,153.1c9.6,0,17.4-7.8,17.4-17.4c0-9.6-7.3-17.4-16.9-17.4c-4.3,0-8.1,1.6-11.1,4.4v-10.5c0-1.7-1.3-3.1-3-3.1
		c-1.7,0-3,1.4-3,3.1v24.5c0,0.6-0.1,0.6-0.1,1.7C119.2,146.7,126,153.1,134.6,153.1z M123.3,135.7c0-6.2,5-11.2,11.2-11.2
		c6.2,0,11.2,5,11.2,11.2c0,6.2-5,11.2-11.2,11.2C128.4,146.9,123.3,141.9,123.3,135.7z"/>
	<path d="M158.3,94H137V43.7c0-7.8-5-12.7-12.8-12.7h-46C70.4,31,63,35.9,63,43.7V94H44.1C36.3,94,29,99.1,29,106.9v46
		c0,7.8,7.3,15,15.1,15h46c4.3,0,8.4-1.9,11.1-5.4c2.7,3.4,6.7,5.4,11.1,5.4h46c7.8,0,12.7-7.2,12.7-15v-46
		C171,99.1,166.1,94,158.3,94z M69,43.7c0-4.4,4.8-6.7,9.2-6.7h46c4.4,0,6.8,2.3,6.8,6.7V94h-18.7c-4.3,0-8.4,1.9-11.1,5.4
		c-2.7-3.4-6.7-5.4-11.1-5.4H69V43.7z M165,154c0,4.4-3.6,8-8,8h-46c-4.4,0-8-3.6-8-8v-46c0-4.4,3.6-8,8-8h46c4.4,0,8,3.6,8,8V154z
		 M97,154c0,4.4-3.6,8-8,8H43c-4.4,0-8-3.6-8-8v-46c0-4.4,3.6-8,8-8h46c4.4,0,8,3.6,8,8V154z"/>
</g>
</svg>
