<?xml version="1.0" encoding="utf-8"?>
<!-- Generator: Adobe Illustrator 18.0.0, SVG Export Plug-In . SVG Version: 6.00 Build 0)  -->
<!DOCTYPE svg PUBLIC "-//W3C//DTD SVG 1.0//EN" "http://www.w3.org/TR/2001/REC-SVG-20010904/DTD/svg10.dtd">
<svg version="1.0" id="Layer_1" xmlns="http://www.w3.org/2000/svg" xmlns:xlink="http://www.w3.org/1999/xlink" x="0px" y="0px"
	 viewBox="0 0 200 200" enable-background="new 0 0 200 200" xml:space="preserve">
<g>
	<path d="M157.6,52.8c0-5.1-4.2-9.3-9.3-9.3H53.4c-5.1,0-9.3,4.2-9.3,9.3v94.9c0,5.1,4.2,9.3,9.3,9.3h94.9c5.1,0,9.3-4.2,9.3-9.3
		V52.8z M151,54.7v42.8h-48.2V49.2h43.2C149.2,49.2,151,51.4,151,54.7z M56.2,49.2h39.9v48.2H49.8V54.7C49.8,51.4,53,49.2,56.2,49.2
		z M49.8,144.3V104h46.3v46.3H56.2C53,150.4,49.8,147.6,49.8,144.3z M145.9,150.4h-43.2V104H151v40.3
		C151,147.6,149.2,150.4,145.9,150.4z"/>
	<path d="M116.6,75h8.4v8.1c0,1.7,0.8,3.1,2.5,3.1s2.5-1.4,2.5-3.1V75h8.1c1.7,0,3.1-0.8,3.1-2.5s-1.4-2.5-3.1-2.5H130v-8.4
		c0-1.7-0.8-3.1-2.5-3.1s-2.5,1.4-2.5,3.1V70h-8.4c-1.7,0-3.1,0.8-3.1,2.5S114.9,75,116.6,75z"/>
	<path d="M139,125h-21.5c-1.7,0-3.1,0.8-3.1,2.5c0,1.7,1.4,2.5,3.1,2.5H139c1.7,0,3.1-0.8,3.1-2.5C142.1,125.8,140.7,125,139,125z"
		/>
	<path d="M85.3,125H62.9c-1.7,0-3.1,0.8-3.1,2.5c0,1.7,1.4,2.5,3.1,2.5h22.4c1.7,0,3.1-0.8,3.1-2.5C88.4,125.8,87,125,85.3,125z"/>
	<path d="M72.7,122h3.6c1.7,0,3.1-1.8,3.1-3.5S78,115,76.3,115h-3.6c-1.7,0-3.1,1.8-3.1,3.5S71,122,72.7,122z"/>
	<path d="M76.3,133h-3.6c-1.7,0-3.1,1.8-3.1,3.5s1.4,3.5,3.1,3.5h3.6c1.7,0,3.1-1.8,3.1-3.5S78,133,76.3,133z"/>
	<path d="M69.3,73.3L63.5,79c-1.2,1.2-1.2,3.2,0,4.4c0.6,0.6,1.4,0.9,2.2,0.9s1.6-0.3,2.2-0.9l5.7-5.7l5.7,5.7
		c0.6,0.6,1.4,0.9,2.2,0.9c0.8,0,1.6-0.3,2.2-0.9c1.2-1.2,1.2-3.2,0-4.4l-5.7-5.7l5.8-5.8c1.2-1.2,1.2-3.2,0-4.4
		c-1.2-1.2-3.2-1.2-4.4,0l-5.8,5.8L67.9,63c-1.2-1.2-3.2-1.2-4.4,0c-1.2,1.2-1.2,3.2,0,4.4L69.3,73.3z"/>
</g>
</svg>
