<?xml version="1.0" encoding="utf-8"?>
<!-- Generator: Adobe Illustrator 18.0.0, SVG Export Plug-In . SVG Version: 6.00 Build 0)  -->
<!DOCTYPE svg PUBLIC "-//W3C//DTD SVG 1.0//EN" "http://www.w3.org/TR/2001/REC-SVG-20010904/DTD/svg10.dtd">
<svg version="1.0" id="Layer_1" xmlns="http://www.w3.org/2000/svg" xmlns:xlink="http://www.w3.org/1999/xlink" x="0px" y="0px"
	 viewBox="0 0 200 200" enable-background="new 0 0 200 200" xml:space="preserve">
<g>
	<path d="M144,116.3V48.9c0-1-0.1-1.9-0.8-2.5c-0.7-0.6-1.4-0.9-2.3-0.7L82.5,56.6C81,56.9,80,58.3,80,59.8v59
		c-4-2.9-9.1-4.8-14.9-4.8c-11.7,0-21.2,7.5-21.2,16.7s9.5,16.7,21.2,16.7s21.2-7.5,21.2-16.7c0-1-0.3-2.1-0.3-3V81.5l30.6-5.7
		c1.8-0.3,2.9-2,2.6-3.8c-0.3-1.8-2-2.9-3.8-2.6L86,74.9V62.5l52-9.7v12l-7.2,1.4c-1.8,0.4-3,2.1-2.6,3.8c0.3,1.6,1.7,2.6,3.2,2.6
		c0.2,0,0.5,0,0.7-0.1l5.9-1.2v36.6c-2-1.5-4.5-2.7-7.3-3.5c-2.4-0.7-4.9-1-7.5-1c-11.7,0-21.2,7.5-21.2,16.7s9.5,16.7,21.2,16.7
		s21.2-7.5,21.2-16.7C144.5,118.8,144,117.6,144,116.3z M65.1,140.8c-7.9,0-14.6-4.6-14.6-10.1s6.7-10.1,14.6-10.1
		c7.9,0,14.6,4.6,14.6,10.1S73,140.8,65.1,140.8z M123.3,130.3c-7.9,0-14.7-4.6-14.7-10.1s6.7-10.1,14.6-10.1c1.9,0,3.9,0.3,5.7,0.8
		c5.3,1.5,9.1,5.2,9.1,9v0.5C138,125.8,131.1,130.3,123.3,130.3z"/>
	<path d="M122.3,113c-6,0-10.8,3.3-10.8,7.6c0,0.7,0.6,1.3,1.3,1.3c0.7,0,1.3-0.6,1.3-1.3c0-2.7,3.7-4.9,8.1-4.9
		c0.7,0,1.3-0.6,1.3-1.3S123,113,122.3,113z"/>
	<path d="M64.8,123.2c-6,0-10.8,3.3-10.8,7.6c0,0.7,0.6,1.3,1.3,1.3c0.7,0,1.3-0.6,1.3-1.3c0-2.7,3.7-4.9,8.1-4.9
		c0.7,0,1.3-0.6,1.3-1.3S65.5,123.2,64.8,123.2z"/>
</g>
</svg>
