<?xml version="1.0" encoding="utf-8"?>
<!-- Generator: Adobe Illustrator 18.0.0, SVG Export Plug-In . SVG Version: 6.00 Build 0)  -->
<!DOCTYPE svg PUBLIC "-//W3C//DTD SVG 1.0//EN" "http://www.w3.org/TR/2001/REC-SVG-20010904/DTD/svg10.dtd">
<svg version="1.0" id="Layer_1" xmlns="http://www.w3.org/2000/svg" xmlns:xlink="http://www.w3.org/1999/xlink" x="0px" y="0px"
	 viewBox="0 0 200 200" enable-background="new 0 0 200 200" xml:space="preserve">
<g>
	<g>
		<g>
			<path d="M138.2,35.7c-0.1-0.9-0.6-1.8-1.4-2.4c-0.8-0.6-1.7-0.8-2.7-0.6c-1,0.2-24.7,5-40.4,18.4c-2.5,2.2-2.2,6.1-1.8,10.6
				c0.1,1.5,0.3,3.8,0.2,5c-0.1,0-0.2,0-0.3,0c-1.1,0-2.7-0.4-4.2-0.7c-1.9-0.4-3.8-0.9-5.6-0.9c-2.2,0-3.9,0.7-5.2,2
				c-9.7,10-18,20.1-21.8,26.3c-10.2,17-5.8,38.8,9.5,50.7l-9.4,14.2c-1,1.6-0.4,3.7,1.2,4.7c0.5,0.3,1.1,0.5,1.7,0.5
				c1.2,0,2.3-0.6,2.9-1.6l9.3-14.1c5.6,2.9,11.8,4.5,18.1,4.5c6.6,0,13.1-1.7,18.9-4.9c6-3.3,11-8.1,14.5-14
				c1.7-2.9-0.2-6.5-3.1-11.9c-1.2-2.3-2.5-4.6-3.3-6.7c-0.8-2-0.9-2.9-0.9-3.3c1.1-0.5,4.1-0.7,5.9-0.8c5.1-0.3,11.5-0.7,13.3-5.9
				C142.7,78.1,138.4,37.4,138.2,35.7z M127.3,102.8c-0.7,0.9-5.1,1.1-7.3,1.3c-4.9,0.3-10.1,0.6-11.8,4.7c-1.8,4.3,1.4,10.3,4.5,16
				c1,1.9,2.4,4.6,2.8,5.8c-5.9,9.4-16,14.9-27.2,14.9c-5.1,0-10.1-1.2-14.6-3.5l33.4-55.7l8.3,5.8c0.6,0.4,1.3,0.6,1.9,0.6
				c1.1,0,2.1-0.5,2.8-1.4c1.1-1.5,0.7-3.6-0.8-4.7l-8.7-6.1l9.9-16.5c1-1.6,0.4-3.7-1.2-4.7c-1.6-1-3.7-0.4-4.7,1.2l-30.2,50.4
				l-10-6.8c-1.5-1.1-3.7-0.7-4.7,0.9c-1.1,1.5-0.7,3.7,0.9,4.7l10.3,7l-12.9,21.6c-12.1-9.9-15.5-27.5-7.2-41.4
				c3.4-5.7,11.5-15.5,20.7-25c0.1,0,0.2,0,0.5,0c1,0,2.6,0.4,4.1,0.7c1.9,0.4,3.9,0.9,5.7,0.9c2.1,0,3.9-0.6,5.1-1.8
				c2.4-2.2,2.1-6.1,1.7-10.6c-0.1-1.6-0.4-4.2-0.2-5.2c10.8-9.1,26.2-13.9,33.2-15.7C132.6,51,134.2,82,127.3,102.8z"/>
		</g>
	</g>
</g>
</svg>
