<?xml version="1.0" encoding="utf-8"?>
<!-- Generator: Adobe Illustrator 18.0.0, SVG Export Plug-In . SVG Version: 6.00 Build 0)  -->
<!DOCTYPE svg PUBLIC "-//W3C//DTD SVG 1.0//EN" "http://www.w3.org/TR/2001/REC-SVG-20010904/DTD/svg10.dtd">
<svg version="1.0" id="Layer_1" xmlns="http://www.w3.org/2000/svg" xmlns:xlink="http://www.w3.org/1999/xlink" x="0px" y="0px"
	 viewBox="0 0 200 200" enable-background="new 0 0 200 200" xml:space="preserve">
<g>
	<g>
		<g>
			<path d="M169.1,88.4c-1.6-14.7-8.6-28.2-19.6-38.1c-11-9.8-25-15.1-39.6-15.1c-2.1,0-4.3,0.1-6.4,0.3c-1.8,0-13.9,0.4-21.9,9.4
				c-5.5,6.2-7.7,14.8-6.6,25.7c-0.1,1.4-0.1,6.6,3.6,10.7c3,3.3,7.6,5,13.5,5c1.2,0,2.6-0.1,3.9-0.2c0.4,0,0.8-0.1,1.1-0.1
				c5.2,0,9.6,3.9,10.2,9.1c0.3,2.7-0.5,5.4-2.2,7.5c-1.7,2.1-4.2,3.5-6.9,3.8c-5.5,0.6-9.6,2.8-12.4,6.6
				c-4.9,6.8-3.4,16.2-3.1,17.6c1,9.1,4.5,15.8,10.3,19.9c4.1,2.9,9.5,4.5,15.5,4.5c4,0,7.1-0.7,8-0.9
				C149,150.5,172.6,121.1,169.1,88.4z M115.6,148.5c-0.1,0-0.3,0-0.4,0.1c0,0-2.9,0.8-6.7,0.8c-11.9,0-18.7-6.5-20.1-19.4
				c0-0.1,0-0.2,0-0.3c0-0.1-1.6-8.1,2.1-13.2c1.8-2.5,4.5-3.9,8.4-4.3c4.2-0.5,8-2.5,10.7-5.9c2.7-3.3,3.9-7.5,3.4-11.7
				c-0.9-8.1-7.7-14.2-15.9-14.2c-0.6,0-1.2,0-1.7,0.1c-1.2,0.1-2.3,0.2-3.3,0.2c-4.2,0-7.3-1-9.2-3.1c-2.5-2.8-2.2-7.1-2.2-7.3
				c0-9.3,0.7-16.5,5.1-21.5c6.6-7.4,17.3-7.5,17.8-7.5c0.1,0,0.2,0,0.4,0c2-0.2,4-0.3,5.9-0.3c27.5,0,50.6,20.7,53.6,48.1
				C166.6,118.6,145.2,145.3,115.6,148.5z"/>
			<path d="M117.2,72.2c2-2.4,2.9-5.5,2.5-8.6c-0.6-6-5.7-10.5-11.7-10.5c-0.4,0-0.9,0-1.3,0.1c-6.4,0.7-11.1,6.5-10.4,12.9
				c0.7,6,5.7,10.5,11.6,10.5c0.4,0,0.9,0,1.3-0.1C112.5,76.1,115.3,74.6,117.2,72.2z M112.8,68.6c-1,1.3-2.4,2-4,2.2
				c-0.2,0-0.4,0-0.7,0c-3.1,0-5.6-2.3-5.9-5.3c-0.4-3.3,2-6.3,5.3-6.6c0.2,0,0.4,0,0.7,0c3.1,0,5.6,2.3,6,5.4
				C114.2,65.8,113.8,67.3,112.8,68.6z"/>
			<path d="M134,88.5c0.4,0,0.8,0,1.3-0.1c6.4-0.7,11.1-6.5,10.4-12.9C145,69.5,140,65,134,65c-0.4,0-0.9,0-1.3,0.1
				c-3.1,0.3-5.9,1.9-7.9,4.3c-2,2.4-2.9,5.5-2.5,8.6C123,84,128,88.5,134,88.5z M129.3,73c1-1.3,2.4-2,4-2.2c0.2,0,0.4,0,0.7,0
				c3.1,0,5.6,2.3,6,5.4c0.4,3.3-2,6.3-5.3,6.6c-0.2,0-0.4,0-0.7,0c-3.1,0-5.6-2.3-6-5.4C127.8,75.8,128.3,74.3,129.3,73z"/>
			<path d="M114.5,111.5c-0.4,0-0.9,0-1.3,0.1c-6.4,0.7-11.1,6.5-10.4,12.9c0.6,6,5.7,10.5,11.7,10.5c0.4,0,0.9,0,1.3-0.1
				c6.4-0.7,11.1-6.5,10.4-13C125.4,116,120.4,111.5,114.5,111.5z M115.1,129.2c-0.2,0-0.4,0-0.7,0c-3.1,0-5.6-2.3-6-5.4
				c-0.4-3.3,2-6.3,5.3-6.6c0.2,0,0.4,0,0.7,0c3.1,0,5.6,2.3,6,5.3C120.8,125.8,118.4,128.8,115.1,129.2z"/>
			<path d="M137.2,94.2c-0.4,0-0.9,0-1.3,0.1c-6.4,0.7-11.1,6.5-10.4,12.9c0.6,6,5.7,10.5,11.6,10.5c0.4,0,0.9,0,1.3-0.1
				c6.4-0.7,11.1-6.5,10.4-12.9C148.2,98.7,143.2,94.2,137.2,94.2z M137.8,111.9c-0.2,0-0.4,0-0.7,0c-3.1,0-5.6-2.3-5.9-5.4
				c-0.4-3.3,2-6.3,5.3-6.6c0.2,0,0.4,0,0.7,0c3.1,0,5.6,2.3,6,5.4C143.5,108.6,141.1,111.6,137.8,111.9z"/>
			<path d="M50.8,37.8c-4.4,0-8.1,5.3-11.4,16.3c-2.4,8-3.8,16.7-3.9,20.4c0,5,2.4,10.7,6.1,14.4c0.1,0.1,0.3,0.3,0.4,0.4
				c-0.2,0.4-0.3,0.8-0.3,1.2v25c0,0,0,0,0,0.1c0,0,0,0,0,0.1l1.8,38.8c0.1,1.4,1.2,2.4,2.6,2.4c0,0,0,0,0,0l8.9-0.1
				c1.3,0,2.4-1.1,2.5-2.4l2.1-38.6c0,0,0,0,0-0.1c0,0,0,0,0-0.1V90.6c0-0.4-0.1-0.9-0.3-1.2c0.8-0.8,1.6-1.6,2.3-2.6
				c2.6-3.6,4.2-8.1,4.2-12.1c0-3.8-1.4-12.5-3.7-20.5C58.9,43.2,55.2,37.8,50.8,37.8z M52.6,151.7l-4.1,0.1l-1.1-23.6l6.5,0
				L52.6,151.7z M54.2,123.1l-7,0l-0.2-4.9l4.2,0l3.3,0L54.2,123.1z M54.6,113.1l-7.8,0V93.1h3.3c0.2,0,0.4,0,0.6,0h0
				c0.2,0,0.3,0,0.5,0h3.4V113.1z M51.1,88h-0.8c-2.1-0.2-3.9-1.5-5-2.6c-2.7-2.7-4.6-7.2-4.6-10.8c0-2.9,1.3-11.1,3.6-19
				c3.2-10.5,5.9-12.7,6.5-12.7c0.6,0,3.3,2.2,6.4,12.7c2.1,7.2,3.5,15.7,3.5,19C60.8,80.3,56.1,87.7,51.1,88z"/>
		</g>
	</g>
</g>
</svg>
