<?xml version="1.0" encoding="utf-8"?>
<!-- Generator: Adobe Illustrator 18.1.1, SVG Export Plug-In . SVG Version: 6.00 Build 0)  -->
<!DOCTYPE svg PUBLIC "-//W3C//DTD SVG 1.0//EN" "http://www.w3.org/TR/2001/REC-SVG-20010904/DTD/svg10.dtd">
<svg version="1.0" id="Layer_1" xmlns="http://www.w3.org/2000/svg" xmlns:xlink="http://www.w3.org/1999/xlink" x="0px" y="0px"
	 viewBox="0 0 64.3 64.3" enable-background="new 0 0 64.3 64.3" xml:space="preserve">
<g>
	<g>
		<g>
			<circle fill="#9ACA3C" cx="31.5" cy="32.1" r="31.6"/>
		</g>
	</g>
	<g>
		<path fill="#FFFFFF" d="M47.9,16.9H15c-1.6,0-2.9,1.3-2.9,2.9v24.7c0,1.6,1.3,2.9,2.9,2.9h5.6h27.3c1.6,0,2.9-1.3,2.9-2.9V19.8
			C50.8,18.2,49.5,16.9,47.9,16.9z M49.4,44.5c0,0.8-0.6,1.4-1.4,1.4H20.6H15c-0.8,0-1.4-0.6-1.4-1.4V19.8c0-0.8,0.6-1.4,1.4-1.4
			h32.9c0.8,0,1.4,0.6,1.4,1.4V44.5z"/>
		<path fill="#FFFFFF" d="M20.7,30.4c2.6,0,4.7-2.1,4.7-4.7c0-2.6-2.1-4.7-4.7-4.7S16,23.1,16,25.7C16,28.3,18.1,30.4,20.7,30.4z
			 M20.7,22.4c1.8,0,3.3,1.5,3.3,3.3c0,1.8-1.5,3.3-3.3,3.3c-1.8,0-3.3-1.5-3.3-3.3C17.4,23.9,18.9,22.4,20.7,22.4z"/>
		<path fill="#FFFFFF" d="M46.1,33.1c-0.4,0-0.7,0.3-0.7,0.7v8.5h-28v-3l6-6l2.8,2.8c0.1,0.1,0.3,0.2,0.5,0.2c0.2,0,0.4-0.1,0.5-0.2
			L37.4,26l4.2,4.2c0.3,0.3,0.7,0.3,1,0c0.3-0.3,0.3-0.7,0-1l-4.8-4.8c-0.3-0.3-0.7-0.3-1,0L26.7,34.7l-2.8-2.8
			c-0.1-0.1-0.3-0.2-0.5-0.2c-0.2,0-0.4,0.1-0.5,0.2l-6.7,6.7C16,38.7,16,38.9,16,39.1v4c0,0.4,0.3,0.7,0.7,0.7h29.4
			c0.4,0,0.7-0.3,0.7-0.7v-9.2C46.8,33.5,46.5,33.1,46.1,33.1z"/>
	</g>
</g>
<rect x="0.5" y="0.5" fill="none" width="63.3" height="63.3"/>
</svg>
