<?xml version="1.0" encoding="utf-8"?>
<!-- Generator: Adobe Illustrator 18.1.1, SVG Export Plug-In . SVG Version: 6.00 Build 0)  -->
<!DOCTYPE svg PUBLIC "-//W3C//DTD SVG 1.0//EN" "http://www.w3.org/TR/2001/REC-SVG-20010904/DTD/svg10.dtd">
<svg version="1.0" id="Layer_1" xmlns="http://www.w3.org/2000/svg" xmlns:xlink="http://www.w3.org/1999/xlink" x="0px" y="0px"
	 viewBox="0 0 64.3 64.3" enable-background="new 0 0 64.3 64.3" xml:space="preserve">
<g>
	<g>
		<path fill="#9ACA3C" d="M44.3,52H19c-2.2,0-4.1-1.8-4.1-4.1V16.1c0-2,1.6-3.6,3.6-3.6h24.5c0.2,0,0.4,0.1,0.5,0.2l4.5,4.1
			c0.2,0.1,0.3,0.4,0.3,0.6v20.9c0,0.4-0.4,0.8-0.8,0.8c-0.4,0-0.8-0.4-0.8-0.8V17.7l-4-3.7H18.6c-1.1,0-2.1,0.9-2.1,2.1v31.8
			c0,1.4,1.1,2.5,2.5,2.5h25.3c1.4,0,2.5-1.1,2.5-2.5c0-0.4,0.4-0.8,0.8-0.8c0.4,0,0.8,0.4,0.8,0.8C48.3,50.1,46.5,52,44.3,52z"/>
		<path fill="#9ACA3C" d="M47.2,18.8h-2.3c-1.4,0-2.6-1.2-2.6-2.6v-3h1.6v3c0,0.6,0.5,1,1,1h2.3V18.8z"/>
	</g>
	<path fill="#9ACA3C" d="M37.4,21.6H25.9c-1.7,0-3.1,1.4-3.1,3.1v5.8c0,1.7,1.4,3.1,3.1,3.1H32h5.4c1.7,0,3.1-1.4,3.1-3.1v-5.8
		C40.5,23,39.1,21.6,37.4,21.6z M38.9,30.6c0,0.9-0.7,1.6-1.6,1.6H32h-6.1c-0.9,0-1.6-0.7-1.6-1.6v-5.8c0-0.9,0.7-1.6,1.6-1.6h11.5
		c0.9,0,1.6,0.7,1.6,1.6V30.6z"/>
</g>
<rect x="0.5" y="0.5" fill="none" width="63.3" height="63.3"/>
</svg>
