<?xml version="1.0" encoding="utf-8"?>
<!-- Generator: Adobe Illustrator 18.1.1, SVG Export Plug-In . SVG Version: 6.00 Build 0)  -->
<!DOCTYPE svg PUBLIC "-//W3C//DTD SVG 1.0//EN" "http://www.w3.org/TR/2001/REC-SVG-20010904/DTD/svg10.dtd">
<svg version="1.0" id="Layer_1" xmlns="http://www.w3.org/2000/svg" xmlns:xlink="http://www.w3.org/1999/xlink" x="0px" y="0px"
	 viewBox="0 0 63.3 63.3" enable-background="new 0 0 63.3 63.3" xml:space="preserve">
<g>
	<path fill="#9ACA3C" d="M32.4,50.9c-10.8,0-19.5-8.8-19.5-19.5s8.8-19.5,19.5-19.5c0.4,0,0.8,0.4,0.8,0.8s-0.4,0.8-0.8,0.8
		c-9.9,0-17.9,8-17.9,17.9s8,17.9,17.9,17.9s17.9-8,17.9-17.9c0-3.8-1.2-7.5-3.5-10.6c-0.3-0.4-0.2-0.8,0.2-1.1
		c0.4-0.3,0.8-0.2,1.1,0.2c2.5,3.4,3.8,7.3,3.8,11.5C51.9,42.2,43.2,50.9,32.4,50.9z"/>
	<path fill="#9ACA3C" d="M44.5,17.9c-0.2,0-0.4-0.1-0.5-0.2c-1.1-1-2.4-1.8-3.7-2.4c-0.4-0.2-0.6-0.7-0.4-1.1
		c0.2-0.4,0.7-0.6,1.1-0.4c1.5,0.7,2.8,1.6,4.1,2.7c0.3,0.3,0.4,0.8,0.1,1.1C45,17.8,44.7,17.9,44.5,17.9z"/>
	<g>
		<path fill="#9ACA3C" d="M28.7,40.4c-0.4,0-0.7-0.1-1.1-0.3c-0.7-0.4-1.1-1.2-1.1-1.9V24c0-0.8,0.4-1.5,1.1-1.9
			c0.7-0.4,1.6-0.4,2.2,0l12,7.1c0.7,0.4,1.1,1.1,1.1,1.9s-0.4,1.5-1.1,1.9l-12,7.1C29.4,40.3,29.1,40.4,28.7,40.4z M28.7,23.4
			c-0.1,0-0.2,0-0.3,0.1C28.2,23.6,28,23.8,28,24v14.2c0,0.2,0.1,0.4,0.3,0.6c0.1,0.1,0.4,0.1,0.6,0l12-7.1c0.2-0.1,0.3-0.3,0.3-0.5
			s-0.1-0.4-0.3-0.5L29,23.5C28.9,23.4,28.8,23.4,28.7,23.4z"/>
	</g>
</g>
<rect x="0" y="0" fill="none" width="63.3" height="63.3"/>
</svg>
