<?xml version="1.0" encoding="utf-8"?>
<!-- Generator: Adobe Illustrator 18.1.1, SVG Export Plug-In . SVG Version: 6.00 Build 0)  -->
<!DOCTYPE svg PUBLIC "-//W3C//DTD SVG 1.0//EN" "http://www.w3.org/TR/2001/REC-SVG-20010904/DTD/svg10.dtd">
<svg version="1.0" id="Layer_1" xmlns="http://www.w3.org/2000/svg" xmlns:xlink="http://www.w3.org/1999/xlink" x="0px" y="0px"
	 viewBox="0 0 64.3 64.3" enable-background="new 0 0 64.3 64.3" xml:space="preserve">
<g>
	<g>
		<g>
			<circle fill="#9ACA3C" cx="31.2" cy="32.1" r="31.6"/>
		</g>
	</g>
	<g>
		<g>
			<path fill="#FFFFFF" d="M27.4,30.6c-2.6,0-4.7-1.9-4.7-4.1s2.1-4.1,4.7-4.1s4.7,1.9,4.7,4.1S30,30.6,27.4,30.6z M27.4,23.6
				c-1.8,0-3.3,1.3-3.3,2.9c0,1.6,1.5,2.9,3.3,2.9s3.3-1.3,3.3-2.9C30.7,24.9,29.2,23.6,27.4,23.6z"/>
			<path fill="#FFFFFF" d="M48.4,42.2h-25c-0.4,0-0.7-0.3-0.7-0.6v-3.5c0-0.2,0.1-0.3,0.2-0.4l6.7-5.8c0.1-0.1,0.3-0.2,0.5-0.2l0,0
				c0.2,0,0.4,0.1,0.5,0.2l2.8,2.5l5.7-8.9c0.3-0.2,0.7-0.2,1,0l4.8,4.1c0.3,0.2,0.3,0.6,0,0.9c-0.3,0.2-0.7,0.2-1,0l-4.2-3.7
				l-5.7,8.9c-0.1,0.1-0.3,0.2-0.5,0.2l0,0c-0.2,0-0.4-0.1-0.5-0.2l-2.8-2.5l-6,5.2V41h23.5v-7.4c0-0.3,0.3-0.6,0.7-0.6
				s0.7,0.3,0.7,0.6v8C49.1,42,48.8,42.2,48.4,42.2z"/>
		</g>
		<path fill="#FFFFFF" d="M50.5,18.9H33.6h-4.8h-7.1h-5h-4.8c-1.5,0-2.7,1.1-2.7,2.4V43c0,1.3,1.2,2.4,2.7,2.4h4.8h5h7.1h4.8h16.8
			c1.5,0,2.7-1.1,2.7-2.4V21.3C53.2,19.9,52,18.9,50.5,18.9z M10.7,43V21.3c0-0.6,0.6-1.1,1.3-1.1h2.4c-0.2,0.3-0.3,0.7-0.3,1.1V43
			c0,0.4,0.1,0.8,0.3,1.1h-2.4C11.2,44.1,10.7,43.6,10.7,43z M15.5,43V21.3c0-0.6,0.6-1.1,1.3-1.1h2.6c-0.2,0.3-0.3,0.7-0.3,1.1V43
			c0,0.4,0.1,0.8,0.3,1.1h-2.6C16,44.1,15.5,43.6,15.5,43z M51.7,43c0,0.6-0.6,1.1-1.3,1.1H33.6h-4.8h-7.1c-0.7,0-1.3-0.5-1.3-1.1
			V21.3c0-0.6,0.6-1.1,1.3-1.1h7.1h4.8h16.8c0.7,0,1.3,0.5,1.3,1.1V43z"/>
	</g>
</g>
<rect x="0.5" y="0.5" fill="none" width="63.3" height="63.3"/>
</svg>
