<?xml version="1.0" encoding="utf-8"?>
<!-- Generator: Adobe Illustrator 18.1.1, SVG Export Plug-In . SVG Version: 6.00 Build 0)  -->
<!DOCTYPE svg PUBLIC "-//W3C//DTD SVG 1.0//EN" "http://www.w3.org/TR/2001/REC-SVG-20010904/DTD/svg10.dtd">
<svg version="1.0" id="Layer_1" xmlns="http://www.w3.org/2000/svg" xmlns:xlink="http://www.w3.org/1999/xlink" x="0px" y="0px"
	 viewBox="0 0 63.3 63.3" enable-background="new 0 0 63.3 63.3" xml:space="preserve">
<g>
	<path fill="#9ACA3C" d="M51.4,49H13.5c-1.8,0-3.3-1.5-3.3-3.3V28.7c0-0.5,0.4-0.9,0.9-0.9c0.5,0,0.9,0.4,0.9,0.9v16.9
		c0,0.8,0.7,1.5,1.5,1.5h37.9c0.8,0,1.5-0.7,1.5-1.5V17.7c0-0.8-0.7-1.5-1.5-1.5H13.5c-0.8,0-1.5,0.7-1.5,1.5v3.9
		c0,0.5-0.4,0.9-0.9,0.9c-0.5,0-0.9-0.4-0.9-0.9v-3.9c0-1.8,1.5-3.3,3.3-3.3h37.9c1.8,0,3.3,1.5,3.3,3.3v27.9
		C54.7,47.5,53.2,49,51.4,49z"/>
	<path fill="#9ACA3C" d="M40.2,40c-0.2,0-0.5-0.1-0.6-0.3c-0.4-0.4-0.4-0.9,0-1.3l6.1-6.1l-6.1-6.1c-0.4-0.4-0.4-0.9,0-1.3
		s0.9-0.4,1.3,0l6.8,6.8c0.4,0.4,0.4,0.9,0,1.3l-6.8,6.8C40.7,39.9,40.5,40,40.2,40z"/>
	<path fill="#9ACA3C" d="M24.9,40c-0.2,0-0.5-0.1-0.6-0.3l-6.8-6.8c-0.4-0.4-0.4-0.9,0-1.3l6.8-6.8c0.4-0.4,0.9-0.4,1.3,0
		c0.4,0.4,0.4,0.9,0,1.3l-6.1,6.1l6.1,6.1c0.4,0.4,0.4,0.9,0,1.3C25.4,39.9,25.2,40,24.9,40z"/>
	<path fill="#9ACA3C" d="M29.3,42.3c-0.1,0-0.2,0-0.3-0.1c-0.5-0.2-0.7-0.7-0.6-1.2l6.2-17.2c0.2-0.5,0.7-0.7,1.2-0.6
		c0.5,0.2,0.7,0.7,0.6,1.2l-6.2,17.2C30.1,42.1,29.7,42.3,29.3,42.3z"/>
	<g>
		<path fill="#9ACA3C" d="M49.8,22c-0.1,0-0.2,0-0.3-0.1l-2.8-2.8c-0.2-0.2-0.2-0.5,0-0.6c0.2-0.2,0.5-0.2,0.6,0l2.8,2.8
			c0.2,0.2,0.2,0.5,0,0.6C50.1,22,50,22,49.8,22z"/>
		<path fill="#9ACA3C" d="M47.1,22c-0.1,0-0.2,0-0.3-0.1c-0.2-0.2-0.2-0.5,0-0.6l2.8-2.8c0.2-0.2,0.5-0.2,0.6,0
			c0.2,0.2,0.2,0.5,0,0.6l-2.8,2.8C47.3,22,47.2,22,47.1,22z"/>
	</g>
</g>
<rect x="0" y="0" fill="none" width="63.3" height="63.3"/>
<rect x="0" y="0" fill="none" width="63.3" height="63.3"/>
</svg>
