<?xml version="1.0" encoding="utf-8"?>
<!-- Generator: Adobe Illustrator 18.1.1, SVG Export Plug-In . SVG Version: 6.00 Build 0)  -->
<!DOCTYPE svg PUBLIC "-//W3C//DTD SVG 1.0//EN" "http://www.w3.org/TR/2001/REC-SVG-20010904/DTD/svg10.dtd">
<svg version="1.0" id="Layer_1" xmlns="http://www.w3.org/2000/svg" xmlns:xlink="http://www.w3.org/1999/xlink" x="0px" y="0px"
	 viewBox="0 0 63.3 63.3" enable-background="new 0 0 63.3 63.3" xml:space="preserve">
<g>
	<path fill="#9ACA3C" d="M36.4,37.7c-0.4,0-0.7-0.2-0.8-0.6c-0.1-0.4,0.2-0.8,0.6-0.9c2.1-0.5,3.6-2.4,3.6-4.6c0-2.1-1.4-4-3.4-4.6
		c-0.4-0.1-0.7-0.6-0.5-1c0.1-0.4,0.6-0.7,1-0.5c2.7,0.8,4.6,3.3,4.6,6.1c0,2.9-2,5.4-4.8,6.1C36.5,37.7,36.4,37.7,36.4,37.7z"/>
	<path fill="#9ACA3C" d="M38.8,43.6c-0.3,0-0.6-0.2-0.7-0.5c-0.1-0.4,0.1-0.9,0.5-1c4.5-1.5,7.5-5.7,7.5-10.5c0-4.7-3-8.9-7.4-10.4
		c-0.4-0.1-0.6-0.6-0.5-1c0.1-0.4,0.6-0.6,1-0.5c5,1.8,8.4,6.6,8.4,11.9c0,5.4-3.5,10.2-8.6,12C39,43.6,38.9,43.6,38.8,43.6z"/>
	<path fill="#9ACA3C" d="M41.7,49.3c-0.3,0-0.6-0.2-0.7-0.5c-0.2-0.4,0-0.9,0.4-1c6.7-2.6,11.1-9,11.1-16.3c0-7-4.2-13.4-10.7-16.1
		c-0.4-0.2-0.6-0.6-0.4-1c0.2-0.4,0.6-0.6,1-0.4c7.1,3,11.6,9.9,11.6,17.6c0,7.9-4.7,14.9-12.1,17.7C41.9,49.3,41.8,49.3,41.7,49.3z
		"/>
	<path fill="#9ACA3C" d="M29,48.8c-0.6,0-1.2-0.3-1.7-0.7l-8.3-8.3c-0.3-0.3-0.3-0.8,0-1.1c0.3-0.3,0.8-0.3,1.1,0l8.3,8.3
		c0.2,0.2,0.4,0.2,0.6,0.2c0.4,0,0.8-0.4,0.8-0.8V26.6c0-0.4,0.4-0.8,0.8-0.8s0.8,0.4,0.8,0.8v19.8C31.4,47.7,30.4,48.8,29,48.8z"/>
	<path fill="#9ACA3C" d="M13.1,40c-1.3,0-2.4-1.1-2.4-2.4V28c0-1.3,1.1-2.4,2.4-2.4h6.2l8.1-8.1c0.5-0.5,1-0.7,1.7-0.7
		c1.3,0,2.4,1.1,2.4,2.4c0,0.4-0.4,0.8-0.8,0.8s-0.8-0.4-0.8-0.8c0-0.4-0.4-0.8-0.8-0.8c-0.2,0-0.4,0.1-0.6,0.2L20.2,27
		c-0.1,0.1-0.3,0.2-0.6,0.2h-6.5c-0.4,0-0.8,0.4-0.8,0.8v9.6c0,0.4,0.4,0.8,0.8,0.8c0.4,0,0.8,0.4,0.8,0.8S13.5,40,13.1,40z"/>
	<path fill="#9ACA3C" d="M19.6,40h-6.5c-0.4,0-0.8-0.4-0.8-0.8s0.4-0.8,0.8-0.8h6.5c0.4,0,0.8,0.4,0.8,0.8S20,40,19.6,40z"/>
</g>
<rect x="0" y="0" fill="none" width="63.3" height="63.3"/>
</svg>
