<?xml version="1.0" encoding="utf-8"?>
<!-- Generator: Adobe Illustrator 18.1.1, SVG Export Plug-In . SVG Version: 6.00 Build 0)  -->
<!DOCTYPE svg PUBLIC "-//W3C//DTD SVG 1.0//EN" "http://www.w3.org/TR/2001/REC-SVG-20010904/DTD/svg10.dtd">
<svg version="1.0" id="Layer_1" xmlns="http://www.w3.org/2000/svg" xmlns:xlink="http://www.w3.org/1999/xlink" x="0px" y="0px"
	 viewBox="0 0 63.3 63.3" enable-background="new 0 0 63.3 63.3" xml:space="preserve">
<g>
	<g>
		<g>
			<circle fill="#9ACA3C" cx="31.6" cy="31.6" r="31.6"/>
		</g>
	</g>
	<g>
		<path fill="#FFFFFF" d="M49.1,47.6H14.2c-1.7,0-3.1-1.4-3.1-3.1V28.9c0-0.5,0.4-0.8,0.8-0.8c0.5,0,0.8,0.4,0.8,0.8v15.5
			c0,0.8,0.6,1.4,1.4,1.4h34.9c0.8,0,1.4-0.6,1.4-1.4V18.8c0-0.8-0.6-1.4-1.4-1.4H14.2c-0.8,0-1.4,0.6-1.4,1.4v3.6
			c0,0.5-0.4,0.8-0.8,0.8c-0.5,0-0.8-0.4-0.8-0.8v-3.6c0-1.7,1.4-3.1,3.1-3.1h34.9c1.7,0,3.1,1.4,3.1,3.1v25.7
			C52.2,46.2,50.8,47.6,49.1,47.6z"/>
		<path fill="#FFFFFF" d="M38.8,39.3c-0.2,0-0.4-0.1-0.6-0.2c-0.3-0.3-0.3-0.9,0-1.2l5.6-5.6l-5.6-5.6c-0.3-0.3-0.3-0.9,0-1.2
			c0.3-0.3,0.9-0.3,1.2,0l6.2,6.2c0.3,0.3,0.3,0.9,0,1.2L39.4,39C39.3,39.2,39.1,39.3,38.8,39.3z"/>
		<path fill="#FFFFFF" d="M24.8,39.3c-0.2,0-0.4-0.1-0.6-0.2l-6.2-6.2c-0.3-0.3-0.3-0.9,0-1.2l6.2-6.2c0.3-0.3,0.9-0.3,1.2,0
			c0.3,0.3,0.3,0.9,0,1.2l-5.6,5.6l5.6,5.6c0.3,0.3,0.3,0.9,0,1.2C25.2,39.2,25,39.3,24.8,39.3z"/>
		<path fill="#FFFFFF" d="M28.8,41.4c-0.1,0-0.2,0-0.3,0c-0.4-0.2-0.7-0.6-0.5-1.1l5.7-15.8c0.2-0.4,0.6-0.7,1.1-0.5
			c0.4,0.2,0.7,0.6,0.5,1.1l-5.7,15.8C29.5,41.2,29.2,41.4,28.8,41.4z"/>
		<g>
			<path fill="#FFFFFF" d="M47.7,22.8c-0.1,0-0.2,0-0.3-0.1l-2.5-2.5c-0.2-0.2-0.2-0.4,0-0.6c0.2-0.2,0.4-0.2,0.6,0l2.5,2.5
				c0.2,0.2,0.2,0.4,0,0.6C47.9,22.7,47.8,22.8,47.7,22.8z"/>
			<path fill="#FFFFFF" d="M45.1,22.8c-0.1,0-0.2,0-0.3-0.1c-0.2-0.2-0.2-0.4,0-0.6l2.5-2.5c0.2-0.2,0.4-0.2,0.6,0
				c0.2,0.2,0.2,0.4,0,0.6l-2.5,2.5C45.4,22.7,45.2,22.8,45.1,22.8z"/>
		</g>
	</g>
</g>
<rect x="0" y="0" fill="none" width="63.3" height="63.3"/>
</svg>
