<?xml version="1.0" encoding="utf-8"?>
<!-- Generator: Adobe Illustrator 18.1.1, SVG Export Plug-In . SVG Version: 6.00 Build 0)  -->
<!DOCTYPE svg PUBLIC "-//W3C//DTD SVG 1.0//EN" "http://www.w3.org/TR/2001/REC-SVG-20010904/DTD/svg10.dtd">
<svg version="1.0" id="Layer_1" xmlns="http://www.w3.org/2000/svg" xmlns:xlink="http://www.w3.org/1999/xlink" x="0px" y="0px"
	 viewBox="0 0 64.3 64.3" enable-background="new 0 0 64.3 64.3" xml:space="preserve">
<g>
	<g>
		<g>
			<circle fill="#9ACA3C" cx="31.2" cy="32.2" r="31.6"/>
		</g>
	</g>
	<g>
		<g>
			<path fill="#FFFFFF" d="M42.8,50.4H19.6c-2.1,0-3.7-1.7-3.7-3.7V17.4c0-1.8,1.5-3.3,3.3-3.3h22.6c0.2,0,0.4,0.1,0.5,0.2l4.1,3.8
				c0.1,0.1,0.2,0.3,0.2,0.5v19.2c0,0.4-0.3,0.7-0.7,0.7c-0.4,0-0.7-0.3-0.7-0.7V18.8l-3.7-3.4H19.2c-1,0-1.9,0.8-1.9,1.9v29.3
				c0,1.3,1,2.3,2.3,2.3h23.3c1.3,0,2.3-1,2.3-2.3c0-0.4,0.3-0.7,0.7-0.7c0.4,0,0.7,0.3,0.7,0.7C46.6,48.7,44.9,50.4,42.8,50.4z"/>
			<path fill="#FFFFFF" d="M45.5,19.9h-2.1c-1.3,0-2.4-1.1-2.4-2.4v-2.8h1.4v2.8c0,0.5,0.4,0.9,0.9,0.9h2.1V19.9z"/>
		</g>
		<path fill="#FFFFFF" d="M36.5,22.5H25.9c-1.6,0-2.9,1.3-2.9,2.9v5.3c0,1.6,1.3,2.9,2.9,2.9h5.6h5c1.6,0,2.9-1.3,2.9-2.9v-5.3
			C39.4,23.8,38.1,22.5,36.5,22.5z M37.9,30.7c0,0.8-0.6,1.4-1.4,1.4h-5h-5.6c-0.8,0-1.4-0.6-1.4-1.4v-5.3c0-0.8,0.6-1.4,1.4-1.4
			h10.6c0.8,0,1.4,0.6,1.4,1.4V30.7z"/>
	</g>
</g>
<rect x="0.5" y="0.5" fill="none" width="63.3" height="63.3"/>
</svg>
