<?xml version="1.0" encoding="utf-8"?>
<!-- Generator: Adobe Illustrator 18.1.1, SVG Export Plug-In . SVG Version: 6.00 Build 0)  -->
<!DOCTYPE svg PUBLIC "-//W3C//DTD SVG 1.0//EN" "http://www.w3.org/TR/2001/REC-SVG-20010904/DTD/svg10.dtd">
<svg version="1.0" id="Layer_1" xmlns="http://www.w3.org/2000/svg" xmlns:xlink="http://www.w3.org/1999/xlink" x="0px" y="0px"
	 viewBox="0 0 64.3 64.3" enable-background="new 0 0 64.3 64.3" xml:space="preserve">
<g>
	<path fill="#9ACA3C" d="M49.5,15.6H13.7c-1.7,0-3.1,1.4-3.1,3.1v26.9c0,1.7,1.4,3.1,3.1,3.1h6.1h29.7c1.7,0,3.1-1.4,3.1-3.1V18.7
		C52.7,17,51.3,15.6,49.5,15.6z M51.1,45.6c0,0.9-0.7,1.6-1.6,1.6H19.8h-6.1c-0.9,0-1.6-0.7-1.6-1.6V18.7c0-0.9,0.7-1.6,1.6-1.6
		h35.8c0.9,0,1.6,0.7,1.6,1.6V45.6z"/>
	<path fill="#9ACA3C" d="M19.9,30.3c2.8,0,5.1-2.3,5.1-5.1c0-2.8-2.3-5.1-5.1-5.1s-5.1,2.3-5.1,5.1C14.8,28,17.1,30.3,19.9,30.3z
		 M19.9,21.5c2,0,3.6,1.6,3.6,3.6c0,2-1.6,3.6-3.6,3.6c-2,0-3.6-1.6-3.6-3.6C16.3,23.1,17.9,21.5,19.9,21.5z"/>
	<path fill="#9ACA3C" d="M47.5,33.2c-0.4,0-0.8,0.4-0.8,0.8v9.2H16.3V40l6.5-6.5l3.1,3.1c0.1,0.1,0.3,0.2,0.6,0.2
		c0.2,0,0.4-0.1,0.6-0.2l11.1-11.1l4.6,4.6c0.3,0.3,0.8,0.3,1.1,0c0.3-0.3,0.3-0.8,0-1.1l-5.2-5.2c-0.3-0.3-0.8-0.3-1.1,0L26.5,34.9
		l-3.1-3.1c-0.1-0.1-0.3-0.2-0.6-0.2c-0.2,0-0.4,0.1-0.6,0.2L15,39.1c-0.1,0.1-0.2,0.3-0.2,0.6V44c0,0.4,0.4,0.8,0.8,0.8h32
		c0.4,0,0.8-0.4,0.8-0.8V34C48.3,33.6,48,33.2,47.5,33.2z"/>
</g>
<rect x="0.5" y="0.5" fill="none" width="63.3" height="63.3"/>
</svg>
