<?xml version="1.0" encoding="utf-8"?>
<!-- Generator: Adobe Illustrator 18.1.1, SVG Export Plug-In . SVG Version: 6.00 Build 0)  -->
<!DOCTYPE svg PUBLIC "-//W3C//DTD SVG 1.0//EN" "http://www.w3.org/TR/2001/REC-SVG-20010904/DTD/svg10.dtd">
<svg version="1.0" id="Layer_1" xmlns="http://www.w3.org/2000/svg" xmlns:xlink="http://www.w3.org/1999/xlink" x="0px" y="0px"
	 viewBox="0 0 64.3 64.3" enable-background="new 0 0 64.3 64.3" xml:space="preserve">
<g>
	<g>
		<path fill="#9ACA3C" d="M29.5,30.4c-2.8,0-5.1-2-5.1-4.5s2.3-4.5,5.1-4.5s5.1,2,5.1,4.5S32.4,30.4,29.5,30.4z M29.5,22.8
			c-2,0-3.6,1.4-3.6,3.1c0,1.7,1.6,3.1,3.6,3.1s3.6-1.4,3.6-3.1C33.1,24.2,31.5,22.8,29.5,22.8z"/>
		<path fill="#9ACA3C" d="M52.3,43.1H25.2c-0.4,0-0.8-0.3-0.8-0.7v-3.8c0-0.2,0.1-0.4,0.2-0.5l7.3-6.3c0.1-0.1,0.3-0.2,0.6-0.2l0,0
			c0.2,0,0.4,0.1,0.6,0.2l3.1,2.7l6.2-9.7c0.3-0.3,0.8-0.3,1.1,0l5.2,4.5c0.3,0.3,0.3,0.7,0,1c-0.3,0.3-0.8,0.3-1.1,0l-4.6-4
			l-6.2,9.7c-0.1,0.1-0.3,0.2-0.6,0.2l0,0c-0.2,0-0.4-0.1-0.6-0.2l-3.1-2.7l-6.5,5.7v2.8h25.6v-8c0-0.4,0.4-0.7,0.8-0.7
			s0.8,0.3,0.8,0.7v8.7C53.1,42.8,52.7,43.1,52.3,43.1z"/>
	</g>
	<path fill="#9ACA3C" d="M54.6,17.7H36.3h-5.2h-7.8h-5.4h-5.2c-1.6,0-3,1.2-3,2.6V44c0,1.4,1.3,2.6,3,2.6h5.2h5.4h7.8h5.2h18.3
		c1.6,0,3-1.2,3-2.6V20.3C57.6,18.9,56.2,17.7,54.6,17.7z M11.3,44V20.3c0-0.7,0.6-1.2,1.4-1.2h2.6c-0.2,0.4-0.4,0.8-0.4,1.2V44
		c0,0.4,0.1,0.8,0.4,1.2h-2.6C11.9,45.2,11.3,44.6,11.3,44z M16.5,44V20.3c0-0.7,0.6-1.2,1.4-1.2h2.8c-0.2,0.4-0.4,0.8-0.4,1.2V44
		c0,0.4,0.1,0.8,0.4,1.2h-2.8C17.1,45.2,16.5,44.6,16.5,44z M55.9,44c0,0.7-0.6,1.2-1.4,1.2H36.3h-5.2h-7.8c-0.8,0-1.4-0.5-1.4-1.2
		V20.3c0-0.7,0.6-1.2,1.4-1.2h7.8h5.2h18.3c0.8,0,1.4,0.5,1.4,1.2V44z"/>
</g>
<rect x="0.5" y="0.5" fill="none" width="63.3" height="63.3"/>
</svg>
