<?xml version="1.0" encoding="utf-8"?>
<!-- Generator: Adobe Illustrator 18.0.0, SVG Export Plug-In . SVG Version: 6.00 Build 0)  -->
<!DOCTYPE svg PUBLIC "-//W3C//DTD SVG 1.0//EN" "http://www.w3.org/TR/2001/REC-SVG-20010904/DTD/svg10.dtd">
<svg version="1.0" id="Layer_1" xmlns="http://www.w3.org/2000/svg" xmlns:xlink="http://www.w3.org/1999/xlink" x="0px" y="0px"
	 viewBox="0 0 200 200" enable-background="new 0 0 200 200" xml:space="preserve">
<g>
	<path d="M133.3,113.7c-2.5-1.6-12.9,4.2-19.5,1.4s-7.2-14.3-10.8-13.3c-4.7,1.2-7.1,22.5,8.7,26.2
		C126.8,131.5,135.8,115.4,133.3,113.7z"/>
	<path d="M108.5,88.8c2.9,1.4,5.4,5.2,7.6,4.7c2.3-0.4,0.8-9.1-4.7-11.5c-5.6-2.5-12.8,0.8-11.8,4.5
		C100.6,90.1,105.6,87.3,108.5,88.8z"/>
	<path d="M146.4,106c2.3-0.4,0.8-9.1-4.7-11.5c-5.6-2.5-12.8,0.8-11.8,4.5c1,3.6,6,0.8,8.9,2.3C141.6,102.7,144.1,106.5,146.4,106z"
		/>
	<path d="M59.7,87.1c-2.3,0-4.1,4-6.7,5.9c-2.6,1.9-8,0-8.4,3.7c-0.4,3.8,7.3,5.9,12.3,2.5S62,87.1,59.7,87.1z"/>
	<path d="M181,127.8l-0.1-1.8l-1.8-0.9l-0.3-0.1c-5.5-1.5-11-4.6-13.6-6.3c6.3-12.6,4-14.3,2.9-15.1c-1.1-0.9-2.6-0.8-3.8,0
		c-2.5,1.4-4.3,1.8-5.7,1.8c2.6-5.1,5.1-10.8,7.4-17.3c0.9-2.6,0.1-5.5-2-7.3c-7.1-5.8-27.2-19.6-60.9-23.3c-2.5-0.3-5,1-6.3,3.2
		c0,0,0,0,0,0.1c0,0,0,0,0-0.1c-1.3-2.2-3.8-3.4-6.3-3.2c-33.8,3.6-53.9,17.5-60.9,23.3c-2.1,1.7-2.9,4.7-2,7.3
		c0.8,2.3,1.6,4.4,2.5,6.6c-5.1,3-11.5,7.4-16.4,13.4l-0.2,0.2c-0.6,1-0.7,2.2-0.2,3.2c1.1,2.1,3.6,2.2,10.3,2.2
		c1.7,0,4.2,0,5.7,0.1c0,0.9,0,2.2,0.1,3.2c0,5.3,0.2,8.9,1.3,11c0.8,1.5,2,1.9,2.7,2c0.2,0,0.3,0,0.5,0c1.7,0,2.8-1.2,4.2-2.7
		c1.4-1.5,3.5-3.8,7-5.9c5.7,7.3,12.1,12.9,19.1,16.8c8.1,4.4,15.2,5.5,19.9,5.5c2.3,0,3.9-0.3,4.8-0.5c1.1-0.4,4.5-1.7,8-5.5
		c3.6,3.8,7,5.2,8.3,5.6c1,0.3,2.8,0.6,4.7,0.6c0,0,0,0,0,0c4.6,0,15.3-1.3,27-10.4c6.7,3.8,13.2,5.1,18.9,5.1
		c9.6,0,17.2-3.7,20.1-5.4C181.1,130.2,181,128.8,181,127.8z M35.1,121.9c-0.1-1.7-0.1-3.6-0.1-4.8c0-3.9-0.1-5.5-0.7-6.7
		c-1.2-2.3-4-2.3-10.9-2.4c-0.6,0-1.2,0-1.9,0c3.5-3.3,7.3-5.9,10.6-7.9c2.8,6.2,5.9,11.8,9.2,16.7
		C38.6,118.6,36.6,120.4,35.1,121.9z M86.8,137.7c-0.3,0.1-33.6,5.9-53.9-51.5c-0.1-0.3,0-0.6,0.2-0.8c5.2-4.3,24.7-18.4,57.9-22
		c0.3,0,0.5,0.1,0.7,0.4c0.6,1,1.2,2.1,1.8,3.4c-2,4.4-3.5,9.1-4.7,14.3c-1.9-0.1-4.3,2.7-6.7,2.3c-3.2-0.5-6.6-3.3-8.7-2.3
		c-2,1.1,1.9,8.9,8,9.6c2.2,0.3,4.4-0.4,6-1.5c-0.5,4.1-0.9,8.3-1,12.8c-0.1,2.7,0,5.1,0.2,7.5c-2.8-2.2-7.2-3.4-13.2-0.9
		c-10.7,4.5-7.3,15.2-5.4,16.7s3.4-7.9,9.5-9.7c4.1-1.2,7.5,0.1,9.8,0.7c1.1,7.3,3.3,12.6,5.7,16.5
		C90.1,136.6,87.4,137.6,86.8,137.7z M109.6,138c-1.7,0-2.8-0.2-3-0.3c-1.5-0.5-15-5.6-14.4-35.3c0.3-15.6,3.5-28.8,9.5-38.9
		c0.1-0.2,0.4-0.6,0.7-0.6c0,0,0,0,0,0c33.1,4,52.7,18,57.9,22.2c0.2,0.2,0.3,0.6,0.2,0.9C143.5,134.2,117.2,138,109.6,138z
		 M141.4,129.5c4.8-4.6,9.7-10.6,14.3-18.5c2,0.5,4.2,0.5,6.6-0.2c-0.7,1.8-2,4.3-3.7,7.5l-0.6,0.6v0.7c0,1.3,0.3,2.2,7,6
		c1.7,1,4.3,2.2,6.9,3.2C165.8,132,154.1,135.8,141.4,129.5z"/>
</g>
</svg>
