<?xml version="1.0" encoding="utf-8"?>
<!-- Generator: Adobe Illustrator 18.0.0, SVG Export Plug-In . SVG Version: 6.00 Build 0)  -->
<!DOCTYPE svg PUBLIC "-//W3C//DTD SVG 1.0//EN" "http://www.w3.org/TR/2001/REC-SVG-20010904/DTD/svg10.dtd">
<svg version="1.0" id="Layer_1" xmlns="http://www.w3.org/2000/svg" xmlns:xlink="http://www.w3.org/1999/xlink" x="0px" y="0px"
	 viewBox="0 0 841.9 595.3" enable-background="new 0 0 841.9 595.3" xml:space="preserve">
<g>
	<g>
		<g>
			<g>
				<g>
					<g>
						<path fill="#FFFFFF" d="M135.9,200.7c4.1,0,8.2-1.6,11.5-4.1c23.2-18.3,50.6-27.3,80.4-27.3c27.3,0,53.9,8.2,75.4,24.9
							c3.3,1.6,7.4,3.3,11.5,3.3c5.8,0,12.4-3.3,15.8-8.2c6.6-8.2,4.1-20.8-4.1-26.5c-29-21.6-62.9-32.3-98.7-32.3
							c-38.1,0-73.8,12.4-103.6,35.6c-8.2,6.6-9.9,19.1-3.3,27.3C124.2,198.1,129.3,200.7,135.9,200.7z"/>
						<path fill="#FFFFFF" d="M220.4,427.7c-59.6-3.3-110.2-48.9-120.1-106.9c17.5-11.5,27.3-30.6,27.3-52.2
							c0-34.8-28.2-62.9-62.9-62.9H23.2C7.4,204.8,0,213.1,0,228.9v132.6c0,10.7,9.1,19,19.9,19S39,371.4,39,361.3v-30.6h20.8
							c0.8,0,1.6,0,3.3,0c15,74.6,77.9,130.1,155,134.3h0.8c9.9,0,19.1-8.2,19.1-18.3c0-4.9-1.6-9.9-4.9-14.2
							C230.3,430.2,225.4,427.7,220.4,427.7z M63.8,292.6H38.9v-48.9h24.9c13.2,0,24.1,10.7,24.1,24.1
							C88.6,281.8,77.1,292.6,63.8,292.6z"/>
						<path fill="#FFFFFF" d="M316.5,397.9c-4.1,0-8.2,1.6-11.5,4.1c-9.9,7.4-20.8,13.2-31.5,17.5c-4.9,1.6-8.2,5.8-10.7,9.9
							c-2.5,4.9-2.5,9.9-0.8,15c2.5,7.4,9.9,12.4,18.3,12.4c2.5,0,4.9-0.8,6.6-0.8c15-5.8,28.2-13.2,41.4-22.4
							c4.1-3.3,6.6-7.4,7.4-12.4c0.8-4.9-0.8-9.9-3.3-14.2C328.2,401.2,322.3,397.9,316.5,397.9z"/>
						<path fill="#FFFFFF" d="M224.6,217.2c-45.6,0-83.7,37.2-83.7,83.7s37.2,83.7,83.7,83.7s83.7-37.2,83.7-83.7
							S271,217.2,224.6,217.2z M268.5,300.9c0,24.1-19.9,44-44,44s-44-19.9-44-44s19.9-44,44-44C249.4,257,268.5,276.8,268.5,300.9z
							"/>
						<path fill="#FFFFFF" d="M404.3,218.8c-15,0-28.2,4.1-39.7,11.5c-3.3-4.9-9.1-8.2-16.6-8.2c-10.7,0-19.9,9.1-19.9,19.9v50.6
							c0,0.8,0,2.5,0,3.3s0,1.6,0,2.5v63.8c0,10.7,9.1,19.9,19.9,19.9c10.7,0,19.9-9.1,19.9-19.9v-69.5
							c1.6-19.1,17.5-33.9,36.4-33.9c20.8,0,37.2,16.6,37.2,37.2v66.2c0,10.7,9.1,19.9,19.9,19.9c10.7,0,19.9-9.1,19.9-19.9v-66.2
							C480.6,253.6,446.6,218.8,404.3,218.8z"/>
						<path fill="#FFFFFF" d="M642.2,149.3c-10.7,0-19.9,9.1-19.9,19.9v62.9c-12.4-7.4-27.3-12.4-43.2-12.4
							c-44.8,0-81.2,36.4-81.2,81.2s36.4,81.2,81.2,81.2c16.6,0,32.3-4.9,45.6-14.2c3.3,5.8,9.9,9.9,17.5,9.9
							c10.7,0,19.9-9.1,19.9-19.9v-189C662.1,158.4,652.9,149.3,642.2,149.3z M621.5,300.9c0,23.2-19.1,42.3-42.3,42.3
							c-23.2,0-42.3-19.1-42.3-42.3s19.1-42.3,42.3-42.3C603.3,258.7,621.5,277.6,621.5,300.9z"/>
						<path fill="#FFFFFF" d="M821.1,221.3c-7.4,0-14.2,4.1-17.5,10.7c-12.4-8.2-28.2-13.2-44-13.2c-44.8,0-81.2,36.4-81.2,81.2
							s36.4,81.2,81.2,81.2c16.6,0,32.3-4.9,44.8-13.2c3.3,5.8,9.9,9.9,17.5,9.9c10.7,0,19.9-9.1,19.9-19.9V241.2
							C841.1,230.5,832,221.3,821.1,221.3z M801.3,300.9c0,23.2-19.1,42.3-42.3,42.3c-23.2,0-42.3-19.1-42.3-42.3
							s19.1-42.3,42.3-42.3C782.2,258.7,801.3,277.6,801.3,300.9z"/>
					</g>
				</g>
			</g>
		</g>
	</g>
</g>
</svg>
