<?xml version="1.0" encoding="utf-8"?>
<!-- Generator: Adobe Illustrator 18.0.0, SVG Export Plug-In . SVG Version: 6.00 Build 0)  -->
<!DOCTYPE svg PUBLIC "-//W3C//DTD SVG 1.1//EN" "http://www.w3.org/Graphics/SVG/1.1/DTD/svg11.dtd">
<svg version="1.1" id="Layer_1" xmlns="http://www.w3.org/2000/svg" xmlns:xlink="http://www.w3.org/1999/xlink" x="0px" y="0px"
	 viewBox="0 273.9 612.6 243.6" enable-background="new 0 273.9 612.6 243.6" xml:space="preserve">
<g>
	<g>
		<g>
			<g>
				<g>
					<g>
						<path fill="#EF4438" d="M98.9,325.2c3,0,6-1.2,8.4-3c16.9-13.3,36.8-19.9,58.5-19.9c19.9,0,39.2,6,54.9,18.1
							c2.4,1.2,5.4,2.4,8.4,2.4c4.2,0,9-2.4,11.5-6c4.8-6,3-15.1-3-19.3c-21.1-15.7-45.8-23.5-71.8-23.5c-27.7,0-53.7,9-75.4,25.9
							c-6,4.8-7.2,13.9-2.4,19.9C90.4,323.3,94.1,325.2,98.9,325.2z"/>
						<path fill="#EF4438" d="M160.4,490.4C117,488,80.2,454.8,73,412.6c12.7-8.4,19.9-22.3,19.9-38c0-25.3-20.5-45.8-45.8-45.8
							H16.9C5.4,328.2,0,334.2,0,345.7v96.5C0,450,6.6,456,14.5,456s13.9-6.6,13.9-13.9v-22.3h15.1c0.6,0,1.2,0,2.4,0
							c10.9,54.3,56.7,94.7,112.8,97.7h0.6c7.2,0,13.9-6,13.9-13.3c0-3.6-1.2-7.2-3.6-10.3C167.6,492.2,164,490.4,160.4,490.4z
							 M46.4,392.1H28.3v-35.6h18.1c9.6,0,17.5,7.8,17.5,17.5C64.5,384.2,56.1,392.1,46.4,392.1z"/>
						<path fill="#EF4438" d="M230.3,468.7c-3,0-6,1.2-8.4,3c-7.2,5.4-15.1,9.6-22.9,12.7c-3.6,1.2-6,4.2-7.8,7.2
							c-1.8,3.6-1.8,7.2-0.6,10.9c1.8,5.4,7.2,9,13.3,9c1.8,0,3.6-0.6,4.8-0.6c10.9-4.2,20.5-9.6,30.1-16.3c3-2.4,4.8-5.4,5.4-9
							c0.6-3.6-0.6-7.2-2.4-10.3C238.8,471.1,234.5,468.7,230.3,468.7z"/>
						<path fill="#EF4438" d="M163.4,337.2c-33.2,0-60.9,27.1-60.9,60.9s27.1,60.9,60.9,60.9s60.9-27.1,60.9-60.9
							S197.2,337.2,163.4,337.2z M195.4,398.1c0,17.5-14.5,32-32,32s-32-14.5-32-32c0-17.5,14.5-32,32-32
							C181.5,366.2,195.4,380.6,195.4,398.1z"/>
						<path fill="#EF4438" d="M294.2,338.4c-10.9,0-20.5,3-28.9,8.4c-2.4-3.6-6.6-6-12.1-6c-7.8,0-14.5,6.6-14.5,14.5v36.8
							c0,0.6,0,1.8,0,2.4c0,0.6,0,1.2,0,1.8v46.4c0,7.8,6.6,14.5,14.5,14.5c7.8,0,14.5-6.6,14.5-14.5v-50.6
							c1.2-13.9,12.7-24.7,26.5-24.7c15.1,0,27.1,12.1,27.1,27.1v48.2c0,7.8,6.6,14.5,14.5,14.5c7.8,0,14.5-6.6,14.5-14.5v-48.2
							C349.7,363.7,325,338.4,294.2,338.4z"/>
						<path fill="#EF4438" d="M467.3,287.8c-7.8,0-14.5,6.6-14.5,14.5v45.8c-9-5.4-19.9-9-31.4-9c-32.6,0-59.1,26.5-59.1,59.1
							s26.5,59.1,59.1,59.1c12.1,0,23.5-3.6,33.2-10.3c2.4,4.2,7.2,7.2,12.7,7.2c7.8,0,14.5-6.6,14.5-14.5V302.2
							C481.8,294.4,475.1,287.8,467.3,287.8z M452.2,398.1c0,16.9-13.9,30.8-30.8,30.8c-16.9,0-30.8-13.9-30.8-30.8
							c0-16.9,13.9-30.8,30.8-30.8C439,367.4,452.2,381.2,452.2,398.1z"/>
						<path fill="#EF4438" d="M597.5,340.2c-5.4,0-10.3,3-12.7,7.8c-9-6-20.5-9.6-32-9.6c-32.6,0-59.1,26.5-59.1,59.1
							s26.5,59.1,59.1,59.1c12.1,0,23.5-3.6,32.6-9.6c2.4,4.2,7.2,7.2,12.7,7.2c7.8,0,14.5-6.6,14.5-14.5v-85
							C612,346.9,605.4,340.2,597.5,340.2z M583.1,398.1c0,16.9-13.9,30.8-30.8,30.8s-30.8-13.9-30.8-30.8
							c0-16.9,13.9-30.8,30.8-30.8C569.2,367.4,583.1,381.2,583.1,398.1z"/>
					</g>
				</g>
			</g>
		</g>
	</g>
</g>
</svg>
