<?xml version="1.0" encoding="utf-8"?>
<!-- Generator: Adobe Illustrator 18.0.0, SVG Export Plug-In . SVG Version: 6.00 Build 0)  -->
<!DOCTYPE svg PUBLIC "-//W3C//DTD SVG 1.1//EN" "http://www.w3.org/Graphics/SVG/1.1/DTD/svg11.dtd">
<svg version="1.1" id="Layer_1" xmlns="http://www.w3.org/2000/svg" xmlns:xlink="http://www.w3.org/1999/xlink" x="0px" y="0px"
	 viewBox="0 0 26 31.2" enable-background="new 0 0 26 31.2" xml:space="preserve">
<g>
	<g>
		<g>
			<path fill="#EF4438" d="M15.6,23.4c-4.4,0-7.9-3.6-7.9-7.9s3.6-7.9,7.9-7.9c4.4,0,7.9,3.6,7.9,7.9S20,23.4,15.6,23.4z M15.6,10.9
				c-2.5,0-4.6,2-4.6,4.6s2,4.6,4.6,4.6c2.5,0,4.6-2,4.6-4.6S18.1,10.9,15.6,10.9z"/>
		</g>
	</g>
	<g>
		<path fill="#EF4438" d="M14.9,31.2C14.9,31.2,14.9,31.2,14.9,31.2C7,30.7,0.8,24.8,0,17c-0.1-0.9,0.6-1.7,1.5-1.8
			c0.9-0.1,1.7,0.6,1.8,1.5C3.9,22.7,9,27.5,15,27.8c0.9,0.1,1.6,0.8,1.6,1.7C16.5,30.5,15.8,31.2,14.9,31.2z"/>
	</g>
	<g>
		<path fill="#EF4438" d="M20.7,30.3c-0.7,0-1.3-0.4-1.6-1.1c-0.3-0.9,0.1-1.8,1-2.1c1.1-0.4,2.1-1,3-1.7c0.7-0.5,1.8-0.4,2.3,0.3
			c0.5,0.7,0.4,1.8-0.3,2.3c-1.2,0.9-2.5,1.6-3.9,2.1C21.1,30.3,20.9,30.3,20.7,30.3z"/>
	</g>
	<g>
		<path fill="#EF4438" d="M3.5,10.3c-0.3,0-0.6-0.1-0.8-0.2C1.8,9.6,1.6,8.6,2,7.8C4.8,3,10,0,15.5,0c3.6,0,7.1,1.3,9.9,3.5
			c0.7,0.6,0.8,1.6,0.2,2.3C25,6.6,24,6.7,23.3,6.1c-2.2-1.8-4.9-2.8-7.8-2.8c-4.4,0-8.4,2.3-10.6,6.1C4.6,10,4,10.3,3.5,10.3z"/>
	</g>
</g>
</svg>
