<?xml version="1.0" encoding="utf-8"?>
<!-- Generator: Adobe Illustrator 18.0.0, SVG Export Plug-In . SVG Version: 6.00 Build 0)  -->
<!DOCTYPE svg PUBLIC "-//W3C//DTD SVG 1.1//EN" "http://www.w3.org/Graphics/SVG/1.1/DTD/svg11.dtd">
<svg version="1.1" id="Layer_1" xmlns="http://www.w3.org/2000/svg" xmlns:xlink="http://www.w3.org/1999/xlink" x="0px" y="0px"
	 viewBox="0 273.7 615.7 244.6" enable-background="new 0 273.7 615.7 244.6" xml:space="preserve">
<g>
	<g>
		<g>
			<g enable-background="new    ">
				<path fill="#FFFFFF" d="M300.9,386.5v-51.7c0-0.7,0.3-1.3,0.9-1.7c0.6-0.4,1.3-0.6,2-0.6h27.4c0.7,0,1.3,0.3,1.7,0.8
					c0.4,0.6,0.6,1.2,0.6,2c0,0.8-0.2,1.5-0.6,2.1c-0.4,0.6-1,0.9-1.6,0.9h-23.9v19.6h12c0.7,0,1.2,0.3,1.6,0.8
					c0.4,0.5,0.6,1.2,0.6,2c0,0.7-0.2,1.3-0.6,1.8s-0.9,0.8-1.7,0.8h-12V383h23.9c0.7,0,1.2,0.3,1.6,0.9c0.4,0.6,0.6,1.3,0.6,2.1
					c0,0.8-0.2,1.4-0.6,2c-0.4,0.6-0.9,0.8-1.7,0.8h-27.4c-0.8,0-1.5-0.2-2-0.6C301.2,387.8,300.9,387.2,300.9,386.5z"/>
				<path fill="#FFFFFF" d="M336.6,374.5v-7.9c0-4.1,1.4-7.5,4.1-10.4c2.7-2.9,6-4.4,9.7-4.4c2.3,0,4.3,0.6,6.1,1.7
					c1.7,1.1,3.1,2.6,4,4.2v-25.2c0-0.7,0.3-1.2,0.9-1.6c0.6-0.4,1.4-0.6,2.3-0.6s1.7,0.2,2.3,0.6c0.6,0.4,0.9,0.9,0.9,1.6v54
					c0,0.6-0.3,1.2-0.9,1.6c-0.6,0.5-1.4,0.7-2.2,0.7c-0.8,0-1.5-0.2-2-0.7c-0.6-0.5-0.9-1-0.9-1.6v-3.1c-0.9,1.7-2.3,3.1-4.2,4.3
					c-2,1.2-4.1,1.8-6.4,1.8c-3.6,0-6.8-1.5-9.5-4.5C338,381.9,336.6,378.4,336.6,374.5z M343,374.5c0,2.4,0.9,4.5,2.6,6.3
					c1.7,1.9,3.8,2.8,6.1,2.8c2.3,0,4.3-0.9,6.1-2.6c1.8-1.7,2.7-3.2,2.7-4.5v-9.9c0-2.7-0.9-4.8-2.6-6.5c-1.7-1.7-3.8-2.5-6.1-2.5
					c-2.4,0-4.4,0.9-6.2,2.8c-1.7,1.8-2.6,3.9-2.6,6.2V374.5z"/>
				<path fill="#FFFFFF" d="M375.8,374.7v-20c0-0.6,0.3-1.2,1-1.6c0.6-0.5,1.4-0.7,2.3-0.7c0.8,0,1.6,0.2,2.2,0.7c0.6,0.5,1,1,1,1.6
					v20c0,2.3,0.9,4.4,2.6,6.2c1.7,1.8,3.8,2.8,6.2,2.8c2.4,0,4.4-0.9,6.2-2.7c1.7-1.8,2.6-3.9,2.6-6.3v-20.1c0-0.6,0.3-1.1,1-1.5
					c0.6-0.5,1.4-0.7,2.3-0.7c0.9,0,1.7,0.2,2.3,0.7c0.6,0.4,0.9,1,0.9,1.6v20.1c0,4-1.5,7.4-4.5,10.4c-3,3-6.6,4.4-10.7,4.4
					c-4.2,0-7.7-1.5-10.8-4.4C377.3,382.1,375.8,378.6,375.8,374.7z"/>
				<path fill="#FFFFFF" d="M413.7,374.5v-7.7c0-4.4,1.3-8,3.9-10.8c2.6-2.8,6.4-4.2,11.4-4.2c3.2,0,5.9,0.6,8.1,1.7
					c2.2,1.1,3.3,2.3,3.3,3.6c0,0.7-0.3,1.4-0.8,2.1c-0.5,0.7-1.2,1-1.9,1c-0.2,0-1.1-0.4-2.7-1.3c-1.6-0.9-3.4-1.3-5.5-1.3
					c-3.1,0-5.4,0.8-7,2.4c-1.6,1.6-2.4,3.8-2.4,6.7v7.7c0,6.1,3.2,9.1,9.5,9.1c2.2,0,4-0.4,5.6-1.3c1.6-0.9,2.5-1.3,2.8-1.3
					c0.8,0,1.5,0.3,2,1c0.5,0.7,0.8,1.4,0.8,2.1c0,1.3-1.1,2.5-3.4,3.7c-2.3,1.2-5,1.8-8.3,1.8c-5.1,0-8.9-1.4-11.5-4.1
					C415,382.6,413.7,379,413.7,374.5z"/>
				<path fill="#FFFFFF" d="M444.8,379.3c0-4,1.5-6.9,4.6-8.4c3.1-1.6,7.6-2.4,13.4-2.4h3.7v-1.6c0-2.6-0.7-4.8-2.1-6.8
					c-1.4-1.9-3.5-2.9-6.4-2.9c-2.2,0-4.1,0.4-5.7,1.2c-1.6,0.8-2.5,1.2-2.7,1.2c-0.7,0-1.3-0.3-1.7-1c-0.4-0.7-0.7-1.4-0.7-2.2
					c0-1.2,1.2-2.2,3.5-3.1c2.3-0.9,4.8-1.3,7.4-1.3c5,0,8.7,1.4,11.1,4.3s3.6,6.4,3.6,10.7v19.7c0,0.7-0.3,1.2-0.9,1.7
					c-0.6,0.4-1.3,0.7-2.3,0.7c-0.8,0-1.5-0.2-2.1-0.6c-0.6-0.4-0.8-1-0.8-1.6v-3c-3.5,3.9-7.4,5.9-11.6,5.9c-3.1,0-5.6-0.9-7.5-2.6
					C445.7,385.1,444.8,382.6,444.8,379.3z M451.2,378.6c0,1.9,0.5,3.4,1.6,4.4c1.1,1,2.5,1.5,4.3,1.5c2.2,0,4.3-0.9,6.3-2.6
					c2-1.7,3-3.5,3-5.3v-4.1h-2.7c-1.5,0-2.8,0-3.9,0.1c-1.1,0.1-2.2,0.2-3.4,0.5c-1.2,0.2-2.1,0.6-2.9,1c-0.7,0.4-1.3,1-1.8,1.8
					C451.5,376.6,451.2,377.5,451.2,378.6z"/>
				<path fill="#FFFFFF" d="M480.4,374.5v-7.7c0-4.4,1.3-8,3.9-10.8c2.6-2.8,6.4-4.2,11.4-4.2c3.2,0,5.9,0.6,8.1,1.7
					c2.2,1.1,3.3,2.3,3.3,3.6c0,0.7-0.3,1.4-0.8,2.1c-0.5,0.7-1.2,1-1.9,1c-0.2,0-1.1-0.4-2.7-1.3c-1.6-0.9-3.4-1.3-5.5-1.3
					c-3.1,0-5.4,0.8-7,2.4c-1.6,1.6-2.4,3.8-2.4,6.7v7.7c0,6.1,3.2,9.1,9.5,9.1c2.2,0,4-0.4,5.6-1.3c1.6-0.9,2.5-1.3,2.8-1.3
					c0.8,0,1.5,0.3,2,1c0.5,0.7,0.8,1.4,0.8,2.1c0,1.3-1.1,2.5-3.4,3.7c-2.3,1.2-5,1.8-8.3,1.8c-5.1,0-8.9-1.4-11.5-4.1
					C481.7,382.6,480.4,379,480.4,374.5z"/>
				<path fill="#FFFFFF" d="M514.2,341.2c-0.8-0.7-1.2-1.6-1.2-2.6c0-1,0.4-1.8,1.2-2.5c0.8-0.7,1.7-1.1,2.9-1.1
					c1.1,0,2,0.4,2.8,1.1c0.8,0.7,1.2,1.6,1.2,2.5c0,1-0.4,1.8-1.2,2.6c-0.8,0.7-1.7,1.1-2.8,1.1S515,341.9,514.2,341.2z
					 M513.8,386.5v-32c0-0.7,0.3-1.2,0.9-1.6c0.6-0.4,1.4-0.6,2.2-0.6c0.9,0,1.7,0.2,2.3,0.6c0.6,0.4,0.9,1,0.9,1.6v32
					c0,0.6-0.3,1.1-1,1.6c-0.6,0.5-1.4,0.7-2.3,0.7c-0.9,0-1.6-0.2-2.2-0.7S513.8,387.1,513.8,386.5z"/>
				<path fill="#FFFFFF" d="M527.9,374.5v-7.9c0-4,1.5-7.4,4.5-10.4c3-3,6.6-4.4,10.7-4.4c4.1,0,7.7,1.5,10.7,4.4
					c3,2.9,4.5,6.4,4.5,10.4v7.9c0,3.9-1.5,7.4-4.6,10.4c-3.1,3-6.6,4.5-10.7,4.5c-4.1,0-7.6-1.5-10.6-4.5
					C529.5,381.9,527.9,378.5,527.9,374.5z M534.3,374.5c0,2.4,0.9,4.5,2.6,6.4c1.7,1.8,3.8,2.8,6.2,2.8c2.4,0,4.5-0.9,6.2-2.8
					s2.6-4,2.6-6.3v-7.8c0-2.3-0.9-4.4-2.6-6.2c-1.7-1.8-3.8-2.8-6.2-2.8c-2.4,0-4.5,0.9-6.2,2.8c-1.7,1.8-2.6,3.9-2.6,6.2V374.5z
					 M536.8,341.2c0-0.8,0.3-1.3,1-1.7l9-4.8c0.3-0.1,0.6-0.2,0.8-0.2c0.6,0,1.1,0.3,1.5,0.8c0.4,0.5,0.6,1.1,0.6,1.8
					c0,0.9-0.4,1.5-1.1,1.8l-8.7,4.5c-0.4,0.2-0.7,0.3-0.8,0.3c-0.6,0-1.2-0.3-1.6-0.8C537,342.5,536.8,341.9,536.8,341.2z"/>
				<path fill="#FFFFFF" d="M566.1,386.5v-32c0-0.7,0.3-1.2,0.9-1.6c0.6-0.4,1.3-0.6,2.3-0.6c0.8,0,1.5,0.2,2,0.7
					c0.6,0.4,0.9,1,0.9,1.6v3.2c0.8-1.7,2.1-3.1,4-4.2c1.8-1.1,3.9-1.7,6.4-1.7c3.6,0,6.8,1.5,9.5,4.4c2.7,2.9,4,6.4,4,10.4v19.9
					c0,0.7-0.3,1.3-1,1.7c-0.6,0.4-1.4,0.6-2.3,0.6c-0.8,0-1.6-0.2-2.2-0.6c-0.6-0.4-1-1-1-1.7v-19.8c0-2.3-0.9-4.4-2.6-6.2
					c-1.7-1.8-3.8-2.8-6.2-2.8c-2.2,0-4.2,0.8-5.9,2.5c-1.7,1.7-2.5,3.8-2.5,6.5v19.8c0,0.6-0.3,1.1-1,1.6c-0.7,0.5-1.4,0.7-2.2,0.7
					c-0.9,0-1.6-0.2-2.2-0.7S566.1,387.1,566.1,386.5z"/>
			</g>
			<g enable-background="new    ">
				<path fill="#FFFFFF" d="M297.6,452.2c0-4,1.5-6.9,4.6-8.4c3.1-1.6,7.6-2.4,13.4-2.4h3.7v-1.6c0-2.6-0.7-4.8-2.1-6.8
					c-1.4-1.9-3.5-2.9-6.4-2.9c-2.2,0-4.1,0.4-5.7,1.2c-1.6,0.8-2.5,1.2-2.7,1.2c-0.7,0-1.3-0.3-1.7-1c-0.4-0.7-0.7-1.4-0.7-2.2
					c0-1.2,1.2-2.2,3.5-3.1c2.3-0.9,4.8-1.3,7.4-1.3c5,0,8.7,1.4,11.1,4.3c2.4,2.9,3.6,6.4,3.6,10.7v19.7c0,0.7-0.3,1.2-0.9,1.7
					c-0.6,0.4-1.3,0.7-2.3,0.7c-0.8,0-1.5-0.2-2.1-0.6c-0.6-0.4-0.8-1-0.8-1.6v-3c-3.5,3.9-7.4,5.9-11.6,5.9c-3.1,0-5.6-0.9-7.5-2.6
					C298.5,458,297.6,455.5,297.6,452.2z M304,451.5c0,1.9,0.5,3.4,1.6,4.4c1.1,1,2.5,1.5,4.3,1.5c2.2,0,4.3-0.9,6.3-2.6
					c2-1.7,3-3.5,3-5.3v-4.1h-2.7c-1.5,0-2.8,0-3.9,0.1c-1.1,0.1-2.2,0.2-3.4,0.5c-1.2,0.2-2.1,0.6-2.9,1c-0.7,0.4-1.3,1-1.8,1.8
					C304.3,449.5,304,450.4,304,451.5z"/>
				<path fill="#FFFFFF" d="M333.2,447.4v-7.7c0-4.4,1.3-8,3.9-10.8c2.6-2.8,6.4-4.2,11.4-4.2c3.2,0,5.9,0.6,8.1,1.7
					c2.2,1.1,3.3,2.3,3.3,3.6c0,0.7-0.3,1.4-0.8,2.1c-0.5,0.7-1.2,1-1.9,1c-0.2,0-1.1-0.4-2.7-1.3c-1.6-0.9-3.4-1.3-5.5-1.3
					c-3.1,0-5.4,0.8-7,2.4c-1.6,1.6-2.4,3.8-2.4,6.7v7.7c0,6.1,3.2,9.1,9.5,9.1c2.2,0,4-0.4,5.6-1.3c1.6-0.9,2.5-1.3,2.8-1.3
					c0.8,0,1.5,0.3,2,1c0.5,0.7,0.8,1.4,0.8,2.1c0,1.3-1.1,2.5-3.4,3.7c-2.3,1.2-5,1.8-8.3,1.8c-5.1,0-8.9-1.4-11.5-4.1
					C334.5,455.5,333.2,451.9,333.2,447.4z"/>
				<path fill="#FFFFFF" d="M364.9,447.4v-7.7c0-4.4,1.3-8,3.9-10.8c2.6-2.8,6.4-4.2,11.4-4.2c3.2,0,5.9,0.6,8.1,1.7
					c2.2,1.1,3.3,2.3,3.3,3.6c0,0.7-0.3,1.4-0.8,2.1c-0.5,0.7-1.2,1-1.9,1c-0.2,0-1.1-0.4-2.7-1.3c-1.6-0.9-3.4-1.3-5.5-1.3
					c-3.1,0-5.4,0.8-7,2.4c-1.6,1.6-2.4,3.8-2.4,6.7v7.7c0,6.1,3.2,9.1,9.5,9.1c2.2,0,4-0.4,5.6-1.3c1.6-0.9,2.5-1.3,2.8-1.3
					c0.8,0,1.5,0.3,2,1c0.5,0.7,0.8,1.4,0.8,2.1c0,1.3-1.1,2.5-3.4,3.7c-2.3,1.2-5,1.8-8.3,1.8c-5.1,0-8.9-1.4-11.5-4.1
					C366.2,455.5,364.9,451.9,364.9,447.4z"/>
				<path fill="#FFFFFF" d="M396.6,447.4v-8.1c0-4,1.5-7.4,4.5-10.3c3-2.9,6.6-4.3,10.8-4.3c4,0,7.5,1.3,10.4,4
					c2.9,2.7,4.4,6,4.4,10.1c0,1.5-0.2,2.7-0.5,3.6c-0.4,0.9-0.9,1.6-1.7,1.9c-0.7,0.4-1.4,0.6-2.1,0.7c-0.6,0.1-1.5,0.2-2.6,0.2
					H403v2.3c0,2.8,1,5.1,3,6.8c2,1.7,4.7,2.5,7.9,2.5c1.7,0,3.2-0.3,4.4-0.8c1.3-0.5,2.3-1,3-1.5c0.8-0.5,1.4-0.7,1.9-0.7
					c0.7,0,1.3,0.3,1.8,1c0.5,0.6,0.8,1.3,0.8,2c0,1.2-1.2,2.4-3.5,3.6c-2.3,1.2-5.2,1.8-8.7,1.8c-5,0-9.1-1.4-12.3-4.1
					C398.2,455.5,396.6,451.9,396.6,447.4z M403,440.9h14.3c1.3,0,2.2-0.2,2.7-0.5c0.5-0.3,0.7-1,0.7-2c0-2.3-0.8-4.3-2.5-6.1
					c-1.7-1.7-3.8-2.6-6.2-2.6c-2.4,0-4.5,0.8-6.2,2.4c-1.7,1.6-2.6,3.6-2.6,6V440.9z"/>
				<path fill="#FFFFFF" d="M431.6,456.5c0-0.7,0.2-1.3,0.7-2c0.4-0.6,1-1,1.6-1c0.4,0,1,0.3,1.8,1c0.8,0.6,1.9,1.3,3.3,1.9
					c1.4,0.6,3.1,0.9,5.1,0.9c2.6,0,4.4-0.5,5.6-1.4c1.2-0.9,1.7-2.1,1.7-3.5c0-1.7-0.6-3.1-1.9-4.1c-1.3-1-2.9-1.8-4.7-2.3
					c-1.8-0.5-3.7-1.1-5.5-1.7s-3.4-1.7-4.7-3.1c-1.3-1.5-1.9-3.4-1.9-5.8c0-2.9,1-5.4,3.1-7.5c2.1-2.1,5.3-3.2,9.5-3.2
					c2.7,0,5.2,0.4,7.5,1.2c2.3,0.8,3.4,1.8,3.4,2.8c0,0.6-0.2,1.3-0.7,2.1c-0.5,0.8-1.1,1.2-1.8,1.2c-0.2,0-1.2-0.4-3-1.1
					s-3.5-1.1-5.3-1.1c-2.4,0-4.1,0.6-5.3,1.7s-1.7,2.4-1.7,3.8c0,1.5,0.6,2.6,1.9,3.4c1.3,0.8,2.9,1.5,4.7,1.9
					c1.9,0.5,3.7,1,5.6,1.7c1.8,0.7,3.4,1.8,4.7,3.5c1.3,1.6,1.9,3.8,1.9,6.4c0,3.2-1.1,5.7-3.4,7.5c-2.3,1.8-5.4,2.7-9.5,2.7
					c-3.5,0-6.5-0.6-8.9-1.9C432.8,459.2,431.6,457.9,431.6,456.5z"/>
				<path fill="#FFFFFF" d="M464.4,414c-0.8-0.7-1.2-1.6-1.2-2.6c0-1,0.4-1.8,1.2-2.5c0.8-0.7,1.7-1.1,2.9-1.1c1.1,0,2,0.4,2.8,1.1
					c0.8,0.7,1.2,1.6,1.2,2.5c0,1-0.4,1.8-1.2,2.6c-0.8,0.7-1.7,1.1-2.8,1.1S465.2,414.8,464.4,414z M464,459.4v-32
					c0-0.7,0.3-1.2,0.9-1.6c0.6-0.4,1.4-0.6,2.2-0.6c0.9,0,1.7,0.2,2.3,0.6c0.6,0.4,0.9,1,0.9,1.6v32c0,0.6-0.3,1.1-1,1.6
					c-0.6,0.5-1.4,0.7-2.3,0.7c-0.9,0-1.6-0.2-2.2-0.7C464.4,460.6,464,460,464,459.4z"/>
				<path fill="#FFFFFF" d="M479.6,459.4v-54c0-0.7,0.3-1.2,0.9-1.6s1.3-0.6,2.3-0.6s1.7,0.2,2.3,0.6c0.6,0.4,0.9,1,0.9,1.6v25.2
					c0.9-1.7,2.3-3.1,4-4.2c1.7-1.1,3.8-1.7,6.1-1.7c3.8,0,7,1.5,9.7,4.4c2.7,2.9,4.1,6.4,4.1,10.4v7.9c0,3.9-1.4,7.4-4.1,10.4
					c-2.7,3-5.9,4.5-9.5,4.5c-2.3,0-4.4-0.6-6.4-1.8c-2-1.2-3.4-2.6-4.2-4.3v3.1c0,0.6-0.3,1.2-0.9,1.6c-0.6,0.5-1.3,0.7-2,0.7
					c-0.9,0-1.6-0.2-2.2-0.7C479.9,460.6,479.6,460,479.6,459.4z M486,449.4c0,1.3,0.9,2.8,2.7,4.5c1.8,1.7,3.8,2.6,6.1,2.6
					c2.3,0,4.3-0.9,6.1-2.8s2.6-4,2.6-6.3v-7.8c0-2.3-0.9-4.4-2.6-6.2s-3.8-2.8-6.2-2.8c-2.3,0-4.3,0.8-6.1,2.5
					c-1.7,1.7-2.6,3.8-2.6,6.5V449.4z"/>
				<path fill="#FFFFFF" d="M518.3,459.4v-54c0-0.7,0.3-1.2,0.9-1.6c0.6-0.4,1.3-0.6,2.3-0.6s1.7,0.2,2.3,0.6c0.6,0.4,0.9,1,0.9,1.6
					v54c0,0.6-0.3,1.1-1,1.6c-0.6,0.5-1.4,0.7-2.3,0.7c-0.9,0-1.6-0.2-2.2-0.7C518.6,460.6,518.3,460,518.3,459.4z"/>
				<path fill="#FFFFFF" d="M533.1,447.4v-8.1c0-4,1.5-7.4,4.5-10.3c3-2.9,6.6-4.3,10.8-4.3c4,0,7.5,1.3,10.4,4
					c2.9,2.7,4.4,6,4.4,10.1c0,1.5-0.2,2.7-0.5,3.6c-0.4,0.9-0.9,1.6-1.7,1.9c-0.7,0.4-1.4,0.6-2.1,0.7c-0.6,0.1-1.5,0.2-2.6,0.2
					h-16.9v2.3c0,2.8,1,5.1,3,6.8c2,1.7,4.7,2.5,7.9,2.5c1.7,0,3.2-0.3,4.4-0.8c1.3-0.5,2.3-1,3-1.5c0.8-0.5,1.4-0.7,1.9-0.7
					c0.7,0,1.3,0.3,1.8,1c0.5,0.6,0.8,1.3,0.8,2c0,1.2-1.2,2.4-3.5,3.6c-2.3,1.2-5.2,1.8-8.7,1.8c-5,0-9.1-1.4-12.3-4.1
					C534.7,455.5,533.1,451.9,533.1,447.4z M539.5,440.9h14.3c1.3,0,2.2-0.2,2.7-0.5c0.5-0.3,0.7-1,0.7-2c0-2.3-0.8-4.3-2.5-6.1
					c-1.7-1.7-3.8-2.6-6.2-2.6c-2.4,0-4.5,0.8-6.2,2.4c-1.7,1.6-2.6,3.6-2.6,6V440.9z"/>
			</g>
		</g>
	</g>
	<path fill="#EF4438" d="M119.8,518.3C27,518.3,0,483.4,0,395.5s25.5-121.8,122.3-121.8S242.1,301.2,242.1,395
		S218.6,518.3,119.8,518.3z"/>
	<g>
		<g>
			<path fill="#FFFFFF" d="M122.8,433.4c-22,0-39.4-18-39.4-39.4c0-21.5,18-39.4,39.4-39.4c22,0,39.4,18,39.4,39.4
				C162.2,415.5,144.8,433.4,122.8,433.4z M122.8,371c-12.5,0-23,10-23,23c0,13,10,23,23,23c12.5,0,23-10,23-23
				C145.8,381,135.3,371,122.8,371z"/>
		</g>
	</g>
	<g>
		<path fill="#FFFFFF" d="M119.3,471.9L119.3,471.9c-38.9-2-70.4-31.4-74.4-70.4c-0.5-4.5,3-8.5,7.5-9s8.5,3,9,7.5
			c3.5,30,28.5,53.9,58.4,55.4c4.5,0.5,8,4,8,8.5C127.8,468.4,123.8,471.9,119.3,471.9z"/>
	</g>
	<g>
		<path fill="#FFFFFF" d="M148.3,467.4c-3.5,0-6.5-2-8-5.5c-1.5-4.5,0.5-9,5-10.5c5.5-2,10.5-5,15-8.5c3.5-2.5,9-2,11.5,1.5
			c2.5,3.5,2,9-1.5,11.5c-6,4.5-12.5,8-19.5,10.5C150.3,467.4,149.3,467.4,148.3,467.4z"/>
	</g>
	<g>
		<path fill="#FFFFFF" d="M62.4,367.5c-1.5,0-3-0.5-4-1c-4-2.5-5.5-7.5-3-11.5c14-24,39.4-38.9,67.4-38.9c18,0,35.4,6.5,49.4,17.5
			c3.5,3,4,8,1,11.5s-8,4-11.5,1c-11-9-24.5-14-38.9-14c-22,0-41.9,11.5-52.9,30.5C67.9,366,65.4,367.5,62.4,367.5z"/>
	</g>
</g>
</svg>
