<?xml version="1.0" encoding="utf-8"?>
<!-- Generator: Adobe Illustrator 18.0.0, SVG Export Plug-In . SVG Version: 6.00 Build 0)  -->
<!DOCTYPE svg PUBLIC "-//W3C//DTD SVG 1.1//EN" "http://www.w3.org/Graphics/SVG/1.1/DTD/svg11.dtd">
<svg version="1.1" id="Layer_1" xmlns="http://www.w3.org/2000/svg" xmlns:xlink="http://www.w3.org/1999/xlink" x="0px" y="0px"
	 viewBox="0 254.6 612.8 282.7" enable-background="new 0 254.6 612.8 282.7" xml:space="preserve">
<g>
	<g>
		<g>
			<path fill="#FFFFFF" d="M587.4,318.5c-10.8-5-22.7-5.4-32.7-1.5c-0.4,0-0.8,0-1.2,0c-8.1-2.7-16.5-3.8-25.4-3.8
				c-11.2,0-21.9,2.3-31.5,6.2c-1.2,0.4-2.3-0.4-2.3-1.5v-6.2c0-22.7-16.5-42.3-39.2-44.2c-25.4-2.3-46.9,17.7-46.9,42.7v3.1
				c-21.2,0.4-40.4,8.8-55,22.7c-0.8,0.8-1.5,0.8-2.3,0c-14.6-14.2-34.2-22.7-55.8-22.7c-0.4,0-1.2,0-1.5,0
				c-7.7-10-16.5-19.2-26.9-26.9c-1.2-1.9-2.7-3.5-5-5c-23.8-17.3-52.3-26.5-81.9-26.5c-31.9,0-61.9,10.4-86.9,30
				c-1.2,1.2-2.3,2.3-3.5,3.1c-5.8,4.6-11.5,10-16.5,15.8h-0.4H45c-26.5,0-45,19.2-45,46.2V437C0,460.8,19.2,480,43.1,480
				c3.5,0,7.3-0.8,11.5-1.5c4.2-1.2,8.8,0.4,11.9,3.8c26.2,33.5,67.3,55,113.5,55c38.5,0,73.5-15,99.2-39.6
				c16.9-20,26.9-20.4,40.8-20.4c6.2,0,13.1,0.8,19.6,0.4c8.5-0.4,69.6,0.8,86.5,0.4c20-0.4,34.6-1.2,46.2-7.7
				c4.2-2.3,9.6-2.7,14.2-0.4c12.3,6.5,28.1,10,42.3,10c8.8,0,46.9-1.5,56.5-5.4c16.5-6.5,27.3-23.1,27.3-41.2v-74.2
				C612,342.3,602.8,325.8,587.4,318.5z"/>
		</g>
	</g>
	<g>
		<g>
			<g>
				<g>
					<g>
						<path fill="#F44336" d="M118.1,332.3c2.7,0,5.4-0.8,7.7-2.7c15-11.9,33.1-18.1,52.3-18.1c18.1,0,35,5.4,49.6,16.2
							c2.3,1.5,4.6,2.3,7.3,2.3c4.2,0,7.7-1.9,10.4-5.4c4.2-5.8,2.7-13.5-2.7-17.7c-18.8-13.5-41.2-20.8-64.2-20.8
							c-25,0-48.5,8.1-68.1,23.5c-5.4,4.2-6.5,12.3-1.9,17.7C110.8,330.8,114.2,332.3,118.1,332.3z"/>
						<path fill="#F44336" d="M173.5,480.8c-39.2-2.3-72.3-31.9-78.9-70.4c11.2-7.7,17.7-20.4,17.7-33.9c0-22.7-18.5-41.5-41.5-41.5
							H43.9c-10,0-14.6,5.4-14.6,15.8v86.9c0,6.9,5.8,12.7,12.7,12.7s12.7-5.8,12.7-12.7v-20h13.5c0.4,0,1.5,0,2.3-0.4
							c9.6,48.9,50.8,85.4,101.6,88.1c0.4,0,0.4,0,0.8,0c6.5,0,12.3-5.4,12.7-11.9c0-3.5-0.8-6.5-3.1-9.2
							C180,482.4,176.9,481.2,173.5,480.8z M71.2,392.7H55v-31.9h16.2c8.8,0,15.8,7.3,15.8,15.8C87.3,385.4,80,392.7,71.2,392.7z"/>
						<path fill="#F44336" d="M236.6,462c-2.7,0-5.4,0.8-7.7,2.3c-6.5,4.6-13.5,8.5-20.8,11.2c-3.1,1.2-5.8,3.5-6.9,6.5
							c-1.5,3.1-1.5,6.5-0.4,9.6c1.9,5,6.5,8.1,11.9,8.1c1.5,0,3.1-0.4,4.6-0.8c9.6-3.5,18.5-8.5,26.9-14.6c2.7-1.9,4.6-5,5-8.5
							c0.4-3.5-0.4-6.5-2.3-9.2C244.3,463.5,240.4,462,236.6,462z"/>
						<path fill="#F44336" d="M176.6,343.5c-30,0-54.6,24.6-54.6,54.6c0,30,24.6,54.6,54.6,54.6s54.6-24.6,54.6-54.6
							C231.2,368.1,206.6,343.5,176.6,343.5z M205.4,398.1c0,15.8-13.1,28.8-28.8,28.8s-28.8-13.1-28.8-28.8
							c0-15.8,13.1-28.8,28.8-28.8S205.4,382,205.4,398.1z"/>
						<path fill="#F44336" d="M294.3,344.6c-9.6,0-18.5,2.7-26.2,7.7c-2.3-3.5-6.2-5.8-10.8-5.8c-6.9,0-12.7,5.8-12.7,12.7v33.1
							c0,0.8,0,1.5,0,1.9c0,0.4,0,1.2,0,1.5v41.9c0,6.9,5.8,12.7,12.7,12.7c6.9,0,12.7-5.8,12.7-12.7v-45
							c1.2-12.3,11.5-22.3,24.2-22.3c13.5,0,24.2,10.8,24.2,24.2v43.5c0,6.9,5.8,12.7,12.7,12.7s12.7-5.8,12.7-12.7v-43.5
							C343.9,367,321.6,344.6,294.3,344.6z"/>
						<path fill="#F44336" d="M449.7,298.9c-6.9,0-12.7,5.8-12.7,12.7v41.2c-8.1-5-17.7-8.1-28.1-8.1c-29.2,0-53.5,23.8-53.5,53.5
							c0,29.2,23.8,53.5,53.5,53.5c10.8,0,21.2-3.5,29.6-8.8c2.3,3.8,6.5,6.5,11.2,6.5c6.9,0,12.7-5.8,12.7-12.7v-125
							C462.8,304.6,457,298.9,449.7,298.9z M436.6,398.1c0,15.4-12.3,27.7-27.7,27.7s-27.7-12.3-27.7-27.7
							c0-15.4,12.3-27.7,27.7-27.7S436.6,382.7,436.6,398.1z"/>
						<path fill="#F44336" d="M567,346.2c-5,0-9.6,3.1-11.5,7.3c-8.5-5.4-18.5-8.5-28.8-8.5c-29.2,0-53.5,23.8-53.5,53.5
							c0,29.2,23.8,53.5,53.5,53.5c10.8,0,20.8-3.1,29.2-8.8c2.3,3.8,6.5,6.5,11.2,6.5c6.9,0,12.7-5.8,12.7-12.7v-78.1
							C579.7,352,573.9,346.2,567,346.2z M553.9,398.1c0,15.4-12.3,27.7-27.7,27.7s-27.7-12.3-27.7-27.7c0-15.4,12.3-27.7,27.7-27.7
							S553.9,382.7,553.9,398.1z"/>
					</g>
				</g>
			</g>
		</g>
	</g>
</g>
</svg>
