<?xml version="1.0" standalone="no"?>
<!DOCTYPE svg PUBLIC "-//W3C//DTD SVG 20010904//EN"
 "http://www.w3.org/TR/2001/REC-SVG-20010904/DTD/svg10.dtd">
<svg version="1.0" xmlns="http://www.w3.org/2000/svg"
 width="992.000000pt" height="992.000000pt" viewBox="0 0 992.000000 992.000000"
 preserveAspectRatio="xMidYMid meet">
<metadata>
Created by potrace 1.11, written by Peter Selinger 2001-2013
</metadata>
<g transform="translate(0.000000,992.000000) scale(0.100000,-0.100000)"
fill="#000000" stroke="none">
<path d="M5498 9915 c-2 -2 -42 -6 -88 -9 -47 -3 -85 -5 -85 -6 0 -1 -18 -3
-40 -4 -63 -6 -158 -16 -185 -21 -14 -2 -41 -7 -60 -9 -19 -3 -46 -8 -60 -10
-14 -3 -41 -7 -60 -10 -78 -12 -271 -53 -315 -66 -16 -5 -41 -11 -55 -14 -39
-7 -270 -75 -315 -92 -22 -9 -47 -17 -55 -19 -24 -5 -183 -64 -202 -75 -10 -5
-22 -10 -27 -10 -5 0 -35 -12 -67 -27 -33 -14 -63 -27 -69 -28 -5 -2 -41 -17
-80 -35 -38 -18 -72 -34 -75 -34 -3 -1 -61 -30 -130 -66 -69 -35 -135 -68
-147 -74 -13 -6 -23 -14 -23 -18 0 -5 -5 -8 -11 -8 -23 0 -450 -270 -520 -328
-8 -7 -67 -53 -131 -102 -65 -50 -118 -96 -118 -101 0 -6 -4 -7 -10 -4 -5 3
-10 2 -10 -4 0 -5 -9 -13 -21 -16 -11 -4 -18 -9 -15 -12 3 -3 -7 -15 -22 -27
-82 -63 -350 -328 -467 -460 -39 -44 -85 -96 -102 -117 -18 -20 -33 -40 -33
-44 0 -4 -8 -15 -18 -24 -34 -31 -91 -109 -85 -115 4 -3 2 -6 -4 -6 -6 0 -23
-19 -39 -42 -16 -24 -32 -45 -35 -48 -7 -5 -29 -39 -114 -170 -30 -47 -61 -92
-68 -101 -12 -15 -27 -41 -73 -126 -12 -22 -20 -44 -17 -47 4 -3 2 -6 -4 -6
-5 0 -10 -6 -11 -12 0 -7 -7 -42 -15 -78 -35 -161 12 -341 121 -462 42 -46
153 -128 174 -128 8 0 18 -4 23 -9 19 -16 135 -42 197 -43 65 -1 164 17 186
35 6 5 12 6 12 1 0 -5 4 -4 8 1 4 6 25 19 46 30 66 33 150 123 210 225 30 52
59 100 64 105 4 6 19 28 32 50 21 35 130 193 152 220 5 6 43 54 85 108 42 53
80 97 85 97 4 0 8 4 8 10 0 18 246 271 356 365 32 28 66 58 77 68 10 11 76 61
145 113 70 52 132 98 137 103 25 19 172 114 204 132 20 11 54 31 76 43 138 79
158 90 173 92 8 1 21 9 30 17 14 11 185 90 202 93 3 0 28 11 55 23 45 20 112
47 140 55 6 2 17 6 25 9 74 28 130 46 130 41 0 -4 6 -2 13 3 9 8 86 33 117 38
3 1 25 7 50 14 25 7 52 15 60 16 8 2 46 11 85 20 38 9 81 18 95 20 14 2 34 6
45 8 11 3 40 8 65 12 25 4 53 9 64 11 10 2 44 6 75 9 31 4 67 8 81 11 158 25
754 25 889 -1 9 -2 44 -6 76 -10 33 -4 69 -10 80 -12 11 -3 34 -6 50 -8 28 -3
45 -6 105 -20 14 -3 40 -8 59 -11 56 -9 250 -61 341 -90 47 -15 87 -28 90 -29
14 -3 89 -29 115 -40 17 -7 48 -20 70 -28 122 -46 407 -184 512 -248 35 -22
68 -39 73 -39 6 0 10 -4 10 -10 0 -5 5 -10 10 -10 9 0 106 -64 258 -169 37
-26 87 -64 125 -96 187 -157 353 -201 532 -140 61 20 95 37 95 47 0 5 4 7 9 4
14 -9 154 132 195 197 54 85 78 165 80 275 2 50 -1 92 -6 92 -5 0 -7 4 -4 8
13 21 -48 153 -103 223 -55 70 -299 254 -516 388 -49 30 -91 59 -93 63 -2 5
-8 8 -12 8 -5 0 -31 13 -58 29 -27 16 -76 44 -108 62 -71 40 -391 199 -399
199 -3 0 -25 9 -48 19 -87 39 -320 131 -342 135 -5 1 -14 4 -20 7 -5 3 -30 11
-55 19 -25 7 -58 18 -75 25 -16 7 -46 16 -65 21 -43 10 -42 9 -60 17 -8 4 -69
20 -135 36 -66 16 -133 33 -150 37 -16 4 -34 9 -40 10 -5 1 -12 3 -15 4 -3 1
-16 3 -30 6 -14 2 -59 11 -100 19 -41 8 -95 17 -120 21 -73 10 -87 12 -117 18
-28 5 -114 15 -188 22 -22 2 -62 6 -90 9 -61 6 -642 15 -647 10z"/>
<path d="M5697 7503 c-1 0 -42 -4 -90 -7 -48 -3 -98 -8 -110 -11 -12 -2 -42
-7 -67 -10 -84 -11 -102 -14 -122 -21 -20 -6 -35 -9 -96 -19 -18 -2 -40 -9
-50 -14 -9 -4 -42 -14 -72 -21 -30 -7 -59 -16 -65 -20 -9 -6 -92 -33 -107 -34
-4 -1 -13 -7 -19 -13 -7 -7 -23 -13 -36 -13 -13 0 -23 -4 -23 -8 0 -5 -6 -9
-12 -9 -16 0 -221 -102 -278 -138 -22 -14 -44 -25 -49 -25 -5 0 -11 -3 -13 -8
-1 -4 -34 -27 -73 -52 -38 -25 -74 -48 -80 -53 -95 -72 -121 -92 -125 -97 -3
-3 -23 -20 -45 -39 -196 -166 -417 -428 -536 -638 -25 -43 -76 -136 -95 -173
-31 -61 -82 -180 -77 -180 3 0 1 -6 -4 -12 -15 -20 -69 -181 -97 -293 -29
-117 -33 -137 -51 -255 -7 -44 -17 -140 -20 -184 -1 -24 -4 -47 -7 -52 -3 -5
-2 -18 2 -29 4 -11 4 -30 -1 -42 -5 -13 -5 -23 -1 -23 5 0 6 -22 2 -50 -4 -27
-4 -50 -1 -50 3 0 7 -35 8 -78 2 -73 17 -207 28 -262 3 -14 7 -37 10 -52 2
-15 6 -35 9 -45 3 -10 8 -31 11 -48 8 -38 13 -60 15 -60 1 0 3 -7 5 -15 13
-59 38 -139 70 -225 42 -114 149 -341 173 -367 8 -10 12 -18 8 -18 -4 0 -2 -6
3 -12 6 -7 43 -62 83 -123 39 -60 74 -112 78 -115 3 -3 21 -25 40 -50 19 -25
42 -54 50 -64 41 -53 275 -281 345 -337 67 -54 233 -169 310 -216 88 -53 431
-212 460 -212 3 0 41 -12 85 -25 44 -14 90 -28 102 -30 13 -3 34 -7 48 -10 14
-3 36 -8 50 -11 40 -8 72 -14 110 -20 20 -3 45 -7 57 -9 48 -10 184 -21 338
-27 72 -4 289 14 400 32 33 5 71 12 85 14 39 6 173 36 190 42 8 3 23 8 32 9
28 6 171 54 205 70 17 8 34 14 38 14 4 0 29 11 56 25 27 13 49 22 49 20 0 -9
288 148 300 164 3 3 21 15 40 25 19 11 47 29 61 40 14 12 37 28 49 36 20 13
85 65 100 80 3 3 25 21 50 41 65 53 186 174 259 260 96 112 97 114 136 171 20
29 40 55 44 58 29 22 241 421 241 454 0 9 4 16 10 16 5 0 9 3 8 8 0 4 2 14 5
22 15 38 59 167 62 181 2 9 12 47 23 85 21 70 48 197 58 269 3 22 7 53 9 69
23 163 23 465 0 621 -2 17 -7 48 -10 70 -3 22 -12 69 -20 105 -8 36 -17 77
-19 92 -5 29 -24 103 -34 128 -7 19 -6 16 -21 69 -7 24 -16 51 -21 60 -4 9
-22 54 -40 100 -17 46 -39 95 -47 108 -8 12 -12 23 -9 23 3 0 -5 18 -19 40
-14 22 -22 40 -19 40 4 0 2 6 -4 13 -9 11 -33 51 -66 112 -44 80 -178 266
-266 370 -46 53 -214 220 -269 265 -29 25 -59 50 -65 56 -59 55 -388 265 -424
270 -7 2 -22 10 -32 19 -9 8 -26 17 -36 20 -11 2 -47 17 -82 34 -34 17 -68 31
-75 31 -8 0 -17 3 -21 7 -3 4 -12 8 -19 9 -7 2 -36 12 -65 23 -29 11 -55 20
-57 21 -3 0 -10 2 -17 5 -25 8 -204 53 -243 60 -22 5 -47 10 -55 11 -8 2 -39
6 -68 8 -29 3 -57 8 -61 10 -13 9 -396 27 -404 19z m228 -1058 c44 -3 89 -8
100 -10 11 -3 31 -7 45 -9 69 -12 177 -42 235 -65 222 -90 375 -190 525 -342
130 -131 202 -234 281 -396 51 -105 112 -299 123 -388 3 -27 8 -61 11 -75 8
-37 8 -278 1 -330 -20 -129 -26 -161 -42 -215 -8 -27 -14 -51 -14 -52 -1 -2
-2 -8 -4 -15 -120 -380 -404 -706 -766 -876 -118 -55 -282 -109 -360 -117 -14
-2 -25 -4 -25 -5 0 -13 -379 -18 -450 -7 -22 4 -53 9 -70 12 -16 2 -45 9 -63
14 -18 5 -35 10 -37 10 -43 4 -170 50 -275 98 -84 39 -259 151 -304 195 -12
13 -38 37 -57 54 -79 71 -202 226 -250 314 -13 25 -28 48 -32 51 -5 3 -8 9 -8
13 0 3 -13 36 -30 73 -17 38 -33 75 -34 83 -2 8 -13 41 -25 73 -11 32 -18 62
-15 68 4 5 1 9 -6 9 -7 0 -10 3 -6 6 3 3 2 16 -3 28 -4 13 -11 38 -14 57 -3
19 -8 57 -13 84 -9 63 -9 343 0 410 13 84 17 109 28 141 5 17 12 41 14 54 7
38 27 94 38 108 5 6 6 12 2 12 -4 0 -3 6 3 13 5 6 13 27 17 45 3 17 10 32 15
32 4 0 10 10 14 23 9 38 111 202 172 278 75 93 192 208 264 258 124 88 246
155 345 191 33 12 69 25 80 30 17 8 93 27 223 55 12 3 64 8 115 12 50 3 93 7
95 8 2 2 20 2 40 0 20 -2 73 -7 117 -10z"/>
<path d="M1245 5076 c-53 -12 -131 -42 -145 -56 -3 -3 -16 -11 -30 -18 -54
-28 -149 -131 -185 -201 -42 -83 -54 -142 -50 -251 3 -94 11 -205 15 -205 1 0
3 -16 6 -35 7 -57 33 -208 55 -310 6 -30 13 -64 15 -75 6 -32 12 -60 14 -60 1
0 3 -9 5 -20 3 -21 5 -28 30 -120 17 -61 22 -79 29 -114 3 -11 10 -29 16 -40
6 -12 8 -21 5 -21 -2 0 2 -17 10 -37 8 -21 15 -47 17 -58 2 -11 5 -22 8 -25 3
-3 20 -50 39 -105 19 -55 54 -149 80 -210 25 -60 46 -112 46 -115 1 -8 53
-117 124 -260 73 -145 160 -299 222 -393 22 -32 39 -60 39 -62 0 -7 64 -99 82
-119 10 -11 18 -24 18 -29 0 -4 6 -14 13 -21 6 -8 37 -48 67 -90 30 -42 58
-76 62 -76 4 0 8 -5 8 -12 0 -6 7 -18 15 -27 8 -9 52 -61 97 -116 159 -192
428 -463 590 -594 17 -14 44 -37 59 -51 15 -14 37 -32 49 -40 13 -8 28 -20 34
-25 20 -19 170 -130 221 -165 28 -19 52 -36 55 -40 6 -7 200 -130 205 -130 2
0 24 -13 48 -30 25 -16 49 -30 55 -30 6 0 12 -4 14 -8 2 -4 21 -18 43 -30 51
-28 428 -215 475 -235 66 -29 245 -99 290 -113 25 -8 54 -19 65 -23 34 -15
211 -72 270 -88 98 -25 286 -73 305 -77 14 -2 59 -12 100 -21 41 -8 80 -13 86
-11 7 3 14 1 16 -3 2 -5 27 -11 57 -15 29 -4 56 -8 60 -10 3 -2 31 -7 61 -10
30 -4 69 -9 85 -12 81 -14 262 -28 370 -28 102 -1 181 22 263 77 177 117 289
363 252 555 -28 145 -110 266 -238 349 -58 37 -176 86 -186 76 -3 -4 -6 -2 -6
3 0 5 -10 9 -22 10 -13 0 -57 4 -98 8 -41 4 -95 9 -120 11 -125 12 -216 24
-305 41 -16 3 -43 7 -60 10 -44 8 -195 43 -230 53 -46 15 -118 34 -135 37 -8
1 -39 11 -68 22 -29 11 -56 21 -60 21 -19 2 -110 36 -128 48 -11 7 -23 11 -26
8 -5 -5 -118 42 -170 71 -16 8 -28 13 -28 10 0 -16 -446 227 -537 292 -17 12
-36 22 -41 22 -6 0 -12 3 -14 8 -1 4 -32 27 -68 52 -313 214 -670 555 -888
848 -9 12 -22 28 -27 35 -32 37 -115 158 -115 166 0 5 -3 11 -7 13 -7 3 -25
29 -89 128 -31 49 -69 116 -101 180 -16 30 -31 57 -34 60 -7 7 -118 237 -124
260 -2 5 -12 29 -44 103 -11 26 -18 47 -14 47 3 0 1 6 -5 13 -32 40 -160 487
-187 652 -1 11 -6 36 -10 55 -3 19 -8 51 -10 70 -2 19 -4 35 -5 35 -1 0 -3 14
-5 30 -2 17 -7 55 -11 85 -4 30 -8 66 -9 80 -4 45 -57 162 -98 220 -69 95
-205 191 -287 202 -14 2 -29 6 -35 9 -20 11 -152 8 -210 -5z"/>
<path d="M8440 1940 c0 -3 -16 -6 -36 -7 -39 -2 -135 -33 -145 -46 -3 -5 -9
-7 -12 -5 -6 4 -44 -21 -208 -138 -69 -49 -134 -94 -145 -101 -204 -128 -373
-218 -519 -277 -38 -16 -89 -37 -112 -48 -23 -10 -44 -18 -48 -18 -16 0 -105
-47 -140 -74 -54 -43 -95 -83 -95 -96 0 -5 -4 -10 -9 -10 -9 0 -57 -92 -76
-145 -17 -45 -23 -183 -12 -251 9 -52 30 -114 39 -114 4 0 8 -7 8 -17 0 -9 11
-31 25 -49 14 -18 25 -35 25 -39 0 -13 133 -135 147 -135 3 0 14 -6 22 -13 20
-17 123 -55 171 -62 113 -19 228 -1 243 39 3 7 27 22 54 32 83 30 278 112 365
153 46 21 90 41 98 45 32 14 267 144 325 179 81 50 335 218 348 232 9 9 17 14
17 11 0 -9 50 34 103 88 50 51 99 136 113 196 4 19 9 42 11 50 11 44 9 180 -4
234 -18 81 -62 172 -107 221 -20 22 -36 44 -36 49 0 5 -3 6 -6 3 -4 -4 -14 1
-23 11 -16 18 -99 60 -156 81 -53 18 -225 35 -225 21z"/>
</g>
</svg>
